<?xml version="1.0" encoding="utf-8"?>
<!-- Generator: Adobe Adobe Illustrator 29.2.0, SVG Export Plug-In . SVG Version: 6.00 Build 0)  -->
<svg version="1.1" id="Layer_1" xmlns="http://www.w3.org/2000/svg" xmlns:xlink="http://www.w3.org/1999/xlink" x="0px" y="0px"
	 width="2241.1px" height="1282.3px" viewBox="0 0 2241.1 1282.3" style="enable-background:new 0 0 2241.1 1282.3;"
	 xml:space="preserve">
<style type="text/css">
	.st0{fill:none;stroke:#F3A6D5;stroke-width:3;stroke-miterlimit:10;}
	.st1{fill:#FFFFFF;}
	.st2{font-family:'SourceSansPro-Regular';}
	.st3{font-size:70px;}
	.st4{letter-spacing:2;}
	.st5{font-family:'SourceSansPro-It';}
	.st6{font-size:26.68px;}
	.st7{letter-spacing:-1;}
	.st8{letter-spacing:-2;}
	.st9{opacity:0.4;fill:#AE00FF;enable-background:new    ;}
	.st10{fill:none;stroke:#FFFFFF;stroke-width:3;stroke-miterlimit:10;}
	.st11{opacity:0.4;fill:#FF00EA;enable-background:new    ;}
	.st12{opacity:0.4;fill:#00FFD4;enable-background:new    ;}
	.st13{opacity:0.4;fill:#E3F700;enable-background:new    ;}
	.st14{opacity:0.4;fill:#D500FF;enable-background:new    ;}
	.st15{opacity:0.4;fill:#00B7FF;enable-background:new    ;}
	.st16{opacity:0.4;fill:#00E645;enable-background:new    ;}
	.st17{font-size:49.34px;}
	.st18{font-size:45.74px;}
	.st19{letter-spacing:1;}
	.st20{opacity:0.3;fill:none;stroke:#F7A6D7;stroke-width:3;stroke-miterlimit:10;enable-background:new    ;}
	
		.st21{opacity:0.3;fill:none;stroke:#F3A6D5;stroke-width:3;stroke-miterlimit:10;stroke-dasharray:5,4,5,4,5,4;enable-background:new    ;}
	.st22{opacity:0.3;fill:none;stroke:#F1A6D4;stroke-width:3;stroke-miterlimit:10;enable-background:new    ;}
	
		.st23{opacity:0.3;fill:none;stroke:#F5A6D6;stroke-width:3;stroke-miterlimit:10;stroke-dasharray:5,4,5,4,5,4;enable-background:new    ;}
	.st24{fill:none;stroke:#F5A6D6;stroke-width:3;stroke-miterlimit:10;}
	.st25{font-size:27px;}
	.st26{fill:#4F6AB3;stroke:#FFFFFF;stroke-width:0.25;stroke-miterlimit:10;}
	.st27{opacity:0.2;fill:#FFFFFF;stroke:#FFFFFF;stroke-miterlimit:10;enable-background:new    ;}
</style>
<line class="st0" x1="635.9" y1="414.4" x2="635.9" y2="847.2"/>
<text transform="matrix(1 0 0 1 1582.25 58.59)" class="st1 st2 st3">Unsupe</text>
<text transform="matrix(1 0 0 1 1807.58 58.59)" class="st1 st2 st3 st4">r</text>
<text transform="matrix(1 0 0 1 1832.22 58.59)" class="st1 st2 st3">vised lea</text>
<text transform="matrix(1 0 0 1 2084.7 58.59)" class="st1 st2 st3">r</text>
<text transform="matrix(1 0 0 1 2107.8701 58.59)" class="st1 st2 st3">ning</text>
<text transform="matrix(1 0 0 1 1917.05 142.59)" class="st1 st2 st3">t</text>
<text transform="matrix(1 0 0 1 1939.8 142.59)" class="st1 st2 st3">echniques</text>
<text transform="matrix(1 0 0 1 1463.45 1008.14)" class="st1 st5 st6">S</text>
<text transform="matrix(1 0 0 1 1476.76 1008.14)" class="st1 st5 st6">e</text>
<text transform="matrix(1 0 0 1 1490.13 1008.14)" class="st1 st5 st6">r</text>
<text transform="matrix(1 0 0 1 1498.59 1008.14)" class="st1 st5 st6">ena, R. S., </text>
<text transform="matrix(1 0 0 1 1606.1899 1008.14)" class="st1 st5 st6">H</text>
<text transform="matrix(1 0 0 1 1623.85 1008.14)" class="st1 st5 st6">i</text>
<text transform="matrix(1 0 0 1 1630.09 1008.14)" class="st1 st5 st6">n</text>
<text transform="matrix(1 0 0 1 1644.7899 1008.14)" class="st1 st5 st6">t</text>
<text transform="matrix(1 0 0 1 1653.46 1008.14)" class="st1 st5 st6">e</text>
<text transform="matrix(1 0 0 1 1666.83 1008.14)" class="st1 st5 st6">r</text>
<text transform="matrix(1 0 0 1 1676.22 1008.14)" class="st1 st5 st6">wimme</text>
<text transform="matrix(1 0 0 1 1759.97 1008.14)" class="st1 st5 st6 st7">r</text>
<text transform="matrix(1 0 0 1 1767.2799 1008.14)" class="st1 st5 st6">, </text>
<text transform="matrix(1 0 0 1 1778.46 1008.14)" class="st1 st5 st6 st8">F</text>
<text transform="matrix(1 0 0 1 1788.86 1008.14)" class="st1 st5 st6">., &amp; Bu</text>
<text transform="matrix(1 0 0 1 1856.52 1008.14)" class="st1 st5 st6">r</text>
<text transform="matrix(1 0 0 1 1865.0299 1008.14)" class="st1 st5 st6">g</text>
<text transform="matrix(1 0 0 1 1879.95 1008.14)" class="st1 st5 st6">k</text>
<text transform="matrix(1 0 0 1 1892.9399 1008.14)" class="st1 st5 st6">a</text>
<text transform="matrix(1 0 0 1 1905.7999 1008.14)" class="st1 st5 st6">r</text>
<text transform="matrix(1 0 0 1 1915.1599 1008.14)" class="st1 st5 st6">t</text>
<text transform="matrix(1 0 0 1 1923.9099 1008.14)" class="st1 st5 st6">, R.</text>
<text transform="matrix(1 0 0 1 1954.97 1008.14)" class="st1 st5 st6 st7"> </text>
<text transform="matrix(1 0 0 1 1959.5299 1008.14)" class="st1 st5 st6">T</text>
<text transform="matrix(1 0 0 1 1972.61 1008.14)" class="st1 st5 st6">he </text>
<text transform="matrix(1 0 0 1 2006.4299 1008.14)" class="st1 st5 st6">U</text>
<text transform="matrix(1 0 0 1 2023.54 1008.14)" class="st1 st5 st6">se of </text>
<text transform="matrix(1 0 0 1 2081.22 1008.14)" class="st1 st5 st6">A</text>
<text transform="matrix(1 0 0 1 2097.47 1008.14)" class="st1 st5 st6">r</text>
<text transform="matrix(1 0 0 1 2106.8301 1008.14)" class="st1 st5 st6">tificial </text>
<text transform="matrix(1 0 0 1 2178.8699 1008.14)" class="st1 st5 st6">I</text>
<text transform="matrix(1 0 0 1 2185.51 1008.14)" class="st1 st5 st6">n</text>
<text transform="matrix(1 0 0 1 2200.21 1008.14)" class="st1 st5 st6">t</text>
<text transform="matrix(1 0 0 1 2208.8799 1008.14)" class="st1 st5 st6">elli</text>
<text transform="matrix(1 0 0 1 1576.22 1040.16)" class="st1 st5 st6">gen</text>
<text transform="matrix(1 0 0 1 1619.3099 1040.16)" class="st1 st5 st6">c</text>
<text transform="matrix(1 0 0 1 1631.1 1040.16)" class="st1 st5 st6">e and</text>
<text transform="matrix(1 0 0 1 1692.84 1040.16)" class="st1 st5 st6 st7"> </text>
<text transform="matrix(1 0 0 1 1697.5399 1040.16)" class="st1 st5 st6">W</text>
<text transform="matrix(1 0 0 1 1719.23 1040.16)" class="st1 st5 st6">ea</text>
<text transform="matrix(1 0 0 1 1745.45 1040.16)" class="st1 st5 st6">r</text>
<text transform="matrix(1 0 0 1 1754.0399 1040.16)" class="st1 st5 st6">able IM</text>
<text transform="matrix(1 0 0 1 1835.23 1040.16)" class="st1 st5 st6">U</text>
<text transform="matrix(1 0 0 1 1852.33 1040.16)" class="st1 st5 st6">s in </text>
<text transform="matrix(1 0 0 1 1895.26 1040.16)" class="st1 st5 st6">M</text>
<text transform="matrix(1 0 0 1 1916.87 1040.16)" class="st1 st5 st6">edicine: A </text>
<text transform="matrix(1 0 0 1 2031.0599 1040.16)" class="st1 st5 st6">S</text>
<text transform="matrix(1 0 0 1 2044 1040.16)" class="st1 st5 st6">y</text>
<text transform="matrix(1 0 0 1 2056.4099 1040.16)" class="st1 st5 st6">s</text>
<text transform="matrix(1 0 0 1 2066.97 1040.16)" class="st1 st5 st6">t</text>
<text transform="matrix(1 0 0 1 2075.6399 1040.16)" class="st1 st5 st6">em</text>
<text transform="matrix(1 0 0 1 2111.26 1040.16)" class="st1 st5 st6">a</text>
<text transform="matrix(1 0 0 1 2124.01 1040.16)" class="st1 st5 st6">tic </text>
<text transform="matrix(1 0 0 1 2156.6899 1040.16)" class="st1 st5 st6">R</text>
<text transform="matrix(1 0 0 1 2171.1599 1040.16)" class="st1 st5 st6">evie</text>
<text transform="matrix(1 0 0 1 2216.96 1040.16)" class="st1 st5 st6 st7">w</text>
<text transform="matrix(1 0 0 1 2235.5601 1040.16)" class="st1 st5 st6">.</text>
<circle class="st9" cx="1478.7" cy="774.4" r="165.7"/>
<circle class="st10" cx="1478.7" cy="774.4" r="165.7"/>
<circle class="st11" cx="1700.8" cy="739.3" r="103.8"/>
<circle class="st10" cx="1700.8" cy="739.3" r="103.8"/>
<circle class="st12" cx="1902.1" cy="729.8" r="121.1"/>
<circle class="st10" cx="1902.1" cy="729.8" r="121.1"/>
<ellipse transform="matrix(0.7071 -0.7071 0.7071 0.7071 97.8682 1702.8949)" class="st13" cx="2104.5" cy="733.3" rx="124.6" ry="124.6"/>
<ellipse transform="matrix(0.7071 -0.7071 0.7071 0.7071 97.8682 1702.8949)" class="st10" cx="2104.5" cy="733.3" rx="124.6" ry="124.6"/>
<circle class="st14" cx="1605.5" cy="585.3" r="107.2"/>
<circle class="st10" cx="1605.5" cy="585.3" r="107.2"/>
<circle class="st15" cx="1796.8" cy="616.4" r="122.9"/>
<circle class="st10" cx="1796.8" cy="616.4" r="122.9"/>
<circle class="st16" cx="2020.4" cy="591.7" r="147.6"/>
<circle class="st10" cx="2020.4" cy="591.7" r="147.6"/>
<text transform="matrix(1 0 0 1 1426.79 900.54)" class="st1 st2 st17">SVM</text>
<text transform="matrix(1 0 0 1 1673.92 813.43)" class="st1 st2 st17">RF</text>
<text transform="matrix(1 0 0 1 1750.47 556.65)" class="st1 st2 st17">MLP</text>
<text transform="matrix(1 0 0 1 1965.62 513.12)" class="st1 st2 st17">LSTM</text>
<text transform="matrix(1 0 0 1 2065.1599 828.04)" class="st1 st2 st17">CNN</text>
<text transform="matrix(1 0 0 1 1858.51 827.08)" class="st1 st2 st18">kNN</text>
<text transform="matrix(1 0 0 1 1574.59 538.05)" class="st1 st2 st17">RL</text>
<text transform="matrix(1 0 0 1 1.8 58.59)" class="st1 st2 st3">C</text>
<text transform="matrix(1 0 0 1 41.63 58.59)" class="st1 st2 st3">o</text>
<text transform="matrix(1 0 0 1 80.06 58.59)" class="st1 st2 st3">n</text>
<text transform="matrix(1 0 0 1 118.63 58.59)" class="st1 st2 st3">tinuous </text>
<text transform="matrix(1 0 0 1 355.16 58.59)" class="st1 st2 st3 st19">k</text>
<text transform="matrix(1 0 0 1 389.18 58.59)" class="st1 st2 st3">inem</text>
<text transform="matrix(1 0 0 1 537.85 58.59)" class="st1 st2 st3">a</text>
<text transform="matrix(1 0 0 1 571.31 58.59)" class="st1 st2 st3">tic</text>
<text transform="matrix(1 0 0 1 1.8 142.59)" class="st1 st2 st3">d</text>
<text transform="matrix(1 0 0 1 41.28 142.59)" class="st1 st2 st3">a</text>
<text transform="matrix(1 0 0 1 74.74 142.59)" class="st1 st2 st3">ta</text>
<line class="st20" x1="322.8" y1="184.8" x2="322.8" y2="617.7"/>
<line class="st21" x1="432.2" y1="261.6" x2="432.2" y2="694.4"/>
<line class="st21" x1="541.7" y1="341.8" x2="541.7" y2="774.6"/>
<line class="st20" x1="323.7" y1="617.7" x2="1142.6" y2="617.7"/>
<line class="st21" x1="432.2" y1="694.4" x2="865" y2="694.4"/>
<line class="st21" x1="541.7" y1="774.6" x2="974.5" y2="774.6"/>
<line class="st0" x1="635.9" y1="847.2" x2="1068.7" y2="847.2"/>
<line class="st22" x1="322.8" y1="617.7" x2="635.9" y2="847.2"/>
<line class="st20" x1="322.8" y1="617.7" x2="17.3" y2="807.8"/>
<line class="st23" x1="432.2" y1="696" x2="126.8" y2="886.2"/>
<line class="st23" x1="541.7" y1="774.9" x2="236.2" y2="965.1"/>
<line class="st24" x1="635.9" y1="847.2" x2="330.5" y2="1037.4"/>
<text transform="matrix(1 0 0 1 1063.27 601.91)" class="st1 st2 st25">F</text>
<text transform="matrix(1 0 0 1 1075.72 601.91)" class="st1 st2 st25">r</text>
<text transform="matrix(1 0 0 1 1084.28 601.91)" class="st1 st2 st25">o</text>
<text transform="matrix(1 0 0 1 1099.1 601.91)" class="st1 st2 st25">n</text>
<text transform="matrix(1 0 0 1 1113.98 601.91)" class="st1 st2 st25">tal</text>
<text transform="matrix(1 0 0 1 296.31 229.43)" class="st1 st2 st25">L</text>
<text transform="matrix(1 0 0 1 296.31 261.83)" class="st1 st2 st25">o</text>
<text transform="matrix(1 0 0 1 296.31 294.23)" class="st1 st2 st25">n</text>
<text transform="matrix(1 0 0 1 296.31 326.63)" class="st1 st2 st25">g</text>
<text transform="matrix(1 0 0 1 296.31 359.03)" class="st1 st2 st25">i</text>
<text transform="matrix(1 0 0 1 296.31 391.43)" class="st1 st2 st25">t</text>
<text transform="matrix(1 0 0 1 296.31 423.83)" class="st1 st2 st25">u</text>
<text transform="matrix(1 0 0 1 296.31 456.23)" class="st1 st2 st25">d</text>
<text transform="matrix(1 0 0 1 296.31 488.63)" class="st1 st2 st25">i</text>
<text transform="matrix(1 0 0 1 296.31 521.03)" class="st1 st2 st25">n</text>
<text transform="matrix(1 0 0 1 296.31 553.43)" class="st1 st2 st25">a</text>
<text transform="matrix(1 0 0 1 296.31 585.83)" class="st1 st2 st25">l</text>
<text transform="matrix(0.848 -0.5299 0.5299 0.848 11.9801 797.2499)" class="st1 st2 st25">S</text>
<text transform="matrix(0.848 -0.5299 0.5299 0.848 23.3355 790.1542)" class="st1 st2 st25">a</text>
<text transform="matrix(0.848 -0.5299 0.5299 0.848 34.3771 783.2548)" class="st1 st2 st25">g</text>
<text transform="matrix(0.848 -0.5299 0.5299 0.848 47.0387 775.3432)" class="st1 st2 st25">ittal</text>
<text transform="matrix(0.809 0.5878 -0.5878 0.809 999.2701 1105.09)" class="st1 st2 st25">T</text>
<text transform="matrix(0.809 0.5878 -0.5878 0.809 1009.86 1112.7841)" class="st1 st2 st25">ime</text>
<line class="st0" x1="635.9" y1="849.1" x2="1037.1" y2="1147.8"/>
<circle class="st26" cx="758.3" cy="645.7" r="9.7"/>
<circle class="st26" cx="724.9" cy="727.7" r="9.7"/>
<circle class="st26" cx="657.6" cy="694.4" r="9.7"/>
<circle class="st26" cx="661.7" cy="791.8" r="9.7"/>
<circle class="st26" cx="724.9" cy="766.3" r="9.7"/>
<circle class="st26" cx="552.2" cy="963.9" r="9.7"/>
<circle class="st26" cx="699.4" cy="896.4" r="9.7"/>
<circle class="st26" cx="671.4" cy="963.9" r="9.7"/>
<circle class="st26" cx="852.1" cy="1110.6" r="9.7"/>
<circle class="st26" cx="912.2" cy="1215.9" r="9.7"/>
<circle class="st26" cx="912.2" cy="776" r="9.7"/>
<circle class="st26" cx="852.1" cy="868.4" r="9.7"/>
<circle class="st26" cx="921.9" cy="1028.8" r="9.7"/>
<circle class="st26" cx="842.4" cy="973.6" r="9.7"/>
<circle class="st26" cx="931.6" cy="935.3" r="9.7"/>
<circle class="st26" cx="885.6" cy="878.1" r="9.7"/>
<circle class="st26" cx="699.4" cy="973.6" r="9.7"/>
<circle class="st26" cx="699.4" cy="801.5" r="9.7"/>
<circle class="st26" cx="998.5" cy="851.4" r="9.7"/>
<ellipse transform="matrix(0.1602 -0.9871 0.9871 0.1602 30.799 1719.5599)" class="st26" cx="1025.9" cy="841.7" rx="9.7" ry="9.7"/>
<circle class="st26" cx="958.2" cy="996.5" r="9.7"/>
<path class="st27" d="M761.6,917.8c-15.8-2.6-30.2-10.8-40.7-22.9c-5.3-6.3-9.7-13.7-16.8-17.9c-10.8-6.6-25.9-3.5-34.8,5.5
	s-12,22.7-10,35.2c1,6,3,12.1,2,18.2c-1.5,9-9.4,15.6-12.7,24.1c-6.4,16.3-34.4,4.9-51.1-2.8c-7.8-3.6-28.3-14-44-14
	c-16.3,0-24,29.4-27,45.5c-2.3,12.4,2.8,20.4,5.5,24.8c9.2,15,102.1,91.7,112.7,105.7c18.3,24.2,40,48,68.9,57.2
	c23,7.3,46.6,15,65.1,30.5c13,11,23.9,26,40.3,30.6c13.1,3.6,27-0.2,40.5,1.1c16,1.6,30.5,10.3,46.2,13.8s35.9-1.1,40.8-16.4
	c2.8-8.8-0.3-18.5-5.7-26s-12.6-13.3-19.3-19.7c-19.4-18.2-34.6-42.7-35.2-69.3c-0.5-21.5-2.3-43.3-9.1-63.8s-18.8-39.7-36.5-52
	c-11.9-8.2-25.9-13.1-38.6-20.2s-24.7-17.5-28.2-31.6c-1.8-7.3-2.2-14.9-2.5-22.5C771.1,924.2,773.1,920.9,761.6,917.8z"/>
<path class="st27" d="M756.5,605.9c-24.9,3.1-39.7,5.8-45.2,26c-0.7,2.7-2.7,4.9-5.2,6.1c-24.5,10.6-54,1.7-79,11.3
	c-27.9,10.7-43.2,46.5-31.6,74c14.7,15.3,22.8,35.8,22.4,57c0,3.9-2,7.6-5.3,9.7c-49.3,32.2-89.9,76.1-118,127.8
	c-4.2,7.6-8,15.5-11.3,23.6c-11.2,27.7,1,61.5,28.8,72.7c24.3,9.9,52.2,4.4,75.8-6.8c6.4-3,12.7-6.6,18-11.3
	c17.4-15.6,21.7-42,38.5-58.3c12.6-12.1,30.6-16.9,48-18.6c5.1-0.5,10.2-0.8,15.4-1c22-1,40.6-17.1,44.1-38.8
	c0.8-4.9,1.5-9.8,2.2-14.8c0.5-3.9,1-7.9-0.2-11.7c-1.1-3.5-3.6-6.5-5.8-9.4c-12.3-16.1-19.6-35.9,18.7-102.3
	c7.7-10.9,3.5-25.9-0.8-38.5s-8.2-27.7-0.3-38.4c3.7-5.1,9.6-8.3,13.8-13c6.2-7.1,8-16.5,8.2-26.1c0.2-11-8.6-20.1-19.6-20.2
	c-0.5,0-1.1,0-1.6,0C763.2,605,760,605.4,756.5,605.9z"/>
<circle class="st26" cx="667.3" cy="1038.4" r="9.7"/>
<circle class="st26" cx="758.3" cy="1057.8" r="9.7"/>
<circle class="st26" cx="734.6" cy="1110.6" r="9.7"/>
<circle class="st26" cx="820.9" cy="1038.4" r="9.7"/>
<circle class="st26" cx="814.4" cy="1187.6" r="9.7"/>
<circle class="st26" cx="724.9" cy="1081.9" r="9.7"/>
<circle class="st26" cx="768" cy="1197.2" r="9.7"/>
<path class="st27" d="M1019.3,749.2c-5.5-0.9-11-1.6-16.8-2.2l-45.8-14.6c-25.4-14.4-59.1-10.1-80.8,8.8
	c-30,26-33.5,71.3-55.6,104.3c-7.5,11.1-17,20.7-25.2,31.3l-52,67.1c-3.1,3.7-5.8,7.7-8.1,11.9c-5.3,10.4-5.4,22.6-5.4,34.3
	c0,21.5-0.1,43.2,2.3,64.6c1.6,13.2,8.9,25.1,19.9,32.6l40.2,27.6c7.7,5.1,16.1,9.3,24.8,12.4c7.3,2.4,15,4,22.7,3.5
	c9.3-0.6,17.9-5,25.9-9.9c29.2-17.8,54.1-42.1,84.1-58.4c7-3.8,14.4-7.2,20.3-12.5c6.7-6,11.2-14.1,15.5-22l11.8-21.4
	c3.6-6.7,4.9-14.3,3.6-21.8c-7.4-46.6,14.5-91.1,41-129c6.4-9.1,13.2-18.1,17.4-28.4c1.9-4.7,3.4-9.7,4.2-14.7
	c0.4-2.3,0.7-4.7,0.9-7.1C1066.4,778,1046.5,753.9,1019.3,749.2z"/>
</svg>
