<svg id="Layer_1" data-name="Layer 1" xmlns="http://www.w3.org/2000/svg" viewBox="0 0 2241.08 1282.34"><defs><style>.cls-1,.cls-32,.cls-44,.cls-45,.cls-46,.cls-47,.cls-48{fill:none;stroke-width:3px;}.cls-1,.cls-45{stroke:#f3a6d5;}.cls-1,.cls-32,.cls-44,.cls-45,.cls-46,.cls-47,.cls-48,.cls-57,.cls-58{stroke-miterlimit:10;}.cls-2{font-size:70px;}.cls-2,.cls-39,.cls-40,.cls-49,.cls-58,.cls-6{fill:#fff;}.cls-2,.cls-39,.cls-40,.cls-49{font-family:SourceSansPro-Regular, SourceSansPro Regular;}.cls-3{letter-spacing:0.03em;}.cls-4{letter-spacing:0em;}.cls-5{letter-spacing:-0.01em;}.cls-6{font-size:26.68px;font-family:SourceSansPro-It, SourceSansPro It;font-style:italic;}.cls-7{letter-spacing:0.01em;}.cls-8{letter-spacing:-0.01em;}.cls-9{letter-spacing:0.01em;}.cls-10{letter-spacing:0em;}.cls-11{letter-spacing:-0.01em;}.cls-12{letter-spacing:0em;}.cls-13{letter-spacing:0.02em;}.cls-14{letter-spacing:-0.05em;}.cls-15{letter-spacing:-0.1em;}.cls-16{letter-spacing:-0.01em;}.cls-17{letter-spacing:0em;}.cls-18{letter-spacing:0.02em;}.cls-19{letter-spacing:0.02em;}.cls-20{letter-spacing:0em;}.cls-21{letter-spacing:-0.04em;}.cls-22{letter-spacing:-0.01em;}.cls-23{letter-spacing:-0.01em;}.cls-24{letter-spacing:0.01em;}.cls-25{letter-spacing:0em;}.cls-26{letter-spacing:-0.04em;}.cls-27{letter-spacing:-0.03em;}.cls-28{letter-spacing:-0.01em;}.cls-29{letter-spacing:0em;}.cls-30{letter-spacing:-0.04em;}.cls-31{fill:#ae00ff;}.cls-31,.cls-33,.cls-34,.cls-35,.cls-36,.cls-37,.cls-38{opacity:0.4;}.cls-32,.cls-57,.cls-58{stroke:#fff;}.cls-33{fill:#ff00ea;}.cls-34{fill:#00ffd4;}.cls-35{fill:#e3f700;}.cls-36{fill:#d500ff;}.cls-37{fill:#00b7ff;}.cls-38{fill:#00e645;}.cls-39{font-size:49.34px;}.cls-40{font-size:45.74px;}.cls-41{letter-spacing:-0.01em;}.cls-42{letter-spacing:0em;}.cls-43{letter-spacing:0.02em;}.cls-44{stroke:#f7a6d7;}.cls-44,.cls-45,.cls-46,.cls-47{opacity:0.3;}.cls-45,.cls-47{stroke-dasharray:5 4 5 4 5 4;}.cls-46{stroke:#f1a6d4;}.cls-47,.cls-48{stroke:#f5a6d6;}.cls-49{font-size:27px;}.cls-50{letter-spacing:-0.03em;}.cls-51{letter-spacing:-0.01em;}.cls-52{letter-spacing:0em;}.cls-53{letter-spacing:0em;}.cls-54{letter-spacing:0em;}.cls-55{letter-spacing:-0.01em;}.cls-56{letter-spacing:-0.01em;}.cls-57{fill:#4f6ab3;stroke-width:0.25px;}.cls-58{opacity:0.2;}</style></defs><line class="cls-1" x1="596.48" y1="411.06" x2="596.48" y2="843.87"/><text class="cls-2" transform="translate(1582.25 58.59)">Unsupe<tspan class="cls-3" x="225.33" y="0">r</tspan><tspan x="249.97" y="0">vised lea</tspan><tspan class="cls-4" x="502.45" y="0">r</tspan><tspan x="525.62" y="0">ning</tspan><tspan class="cls-5" x="334.8" y="84">t</tspan><tspan x="357.55" y="84">echniques</tspan></text><text class="cls-6" transform="translate(1463.45 1008.14)"><tspan class="cls-7">S</tspan><tspan x="13.31" y="0">e</tspan><tspan class="cls-8" x="26.68" y="0">r</tspan><tspan x="35.14" y="0">ena, R. S., </tspan><tspan class="cls-9" x="142.74" y="0">H</tspan><tspan x="160.4" y="0">i</tspan><tspan class="cls-10" x="166.64" y="0">n</tspan><tspan class="cls-11" x="181.34" y="0">t</tspan><tspan class="cls-12" x="190.01" y="0">e</tspan><tspan class="cls-13" x="203.38" y="0">r</tspan><tspan x="212.77" y="0">wimme</tspan><tspan class="cls-14" x="296.52" y="0">r</tspan><tspan x="303.83" y="0">, </tspan><tspan class="cls-15" x="315.01" y="0">F</tspan><tspan x="325.41" y="0">., &amp; Bu</tspan><tspan class="cls-16" x="393.07" y="0">r</tspan><tspan class="cls-17" x="401.58" y="0">g</tspan><tspan class="cls-18" x="416.5" y="0">k</tspan><tspan x="429.49" y="0">a</tspan><tspan class="cls-19" x="442.35" y="0">r</tspan><tspan class="cls-20" x="451.71" y="0">t</tspan><tspan x="460.46" y="0">, R.</tspan><tspan class="cls-21" x="491.52" y="0"> </tspan><tspan class="cls-22" x="496.08" y="0">T</tspan><tspan class="cls-17" x="509.16" y="0">he </tspan><tspan class="cls-23" x="542.98" y="0">U</tspan><tspan class="cls-17" x="560.09" y="0">se of </tspan><tspan class="cls-20" x="617.77" y="0">A</tspan><tspan class="cls-19" x="634.02" y="0">r</tspan><tspan x="643.38" y="0">tificial </tspan><tspan class="cls-24" x="715.42" y="0">I</tspan><tspan class="cls-25" x="722.06" y="0">n</tspan><tspan class="cls-11" x="736.76" y="0">t</tspan><tspan x="745.43" y="0">elli</tspan><tspan x="112.77" y="32.02">gen</tspan><tspan class="cls-11" x="155.86" y="32.02">c</tspan><tspan x="167.65" y="32.02">e and</tspan><tspan class="cls-26" x="229.39" y="32.02"> </tspan><tspan class="cls-27" x="234.09" y="32.02">W</tspan><tspan class="cls-12" x="255.78" y="32.02">ea</tspan><tspan class="cls-28" x="282" y="32.02">r</tspan><tspan class="cls-12" x="290.59" y="32.02">able IM</tspan><tspan class="cls-11" x="371.78" y="32.02">U</tspan><tspan x="388.88" y="32.02">s in </tspan><tspan class="cls-7" x="431.81" y="32.02">M</tspan><tspan x="453.42" y="32.02">edicine: A </tspan><tspan class="cls-16" x="567.61" y="32.02">S</tspan><tspan class="cls-11" x="580.55" y="32.02">y</tspan><tspan x="592.96" y="32.02">s</tspan><tspan class="cls-11" x="603.52" y="32.02">t</tspan><tspan x="612.19" y="32.02">em</tspan><tspan class="cls-25" x="647.81" y="32.02">a</tspan><tspan x="660.56" y="32.02">tic </tspan><tspan class="cls-29" x="693.24" y="32.02">R</tspan><tspan x="707.71" y="32.02">evie</tspan><tspan class="cls-30" x="753.51" y="32.02">w</tspan><tspan x="772.11" y="32.02">.</tspan></text><circle class="cls-31" cx="1478.74" cy="774.41" r="165.72"/><circle class="cls-32" cx="1478.74" cy="774.41" r="165.72"/><circle class="cls-33" cx="1700.77" cy="739.28" r="103.75"/><circle class="cls-32" cx="1700.77" cy="739.28" r="103.75"/><circle class="cls-34" cx="1902.09" cy="729.76" r="121.07"/><circle class="cls-32" cx="1902.09" cy="729.76" r="121.07"/><circle class="cls-35" cx="2104.51" cy="733.31" r="124.62"/><circle class="cls-32" cx="2104.51" cy="733.31" r="124.62"/><circle class="cls-36" cx="1605.5" cy="585.34" r="107.25"/><circle class="cls-32" cx="1605.5" cy="585.34" r="107.25"/><circle class="cls-37" cx="1796.83" cy="616.37" r="122.91"/><circle class="cls-32" cx="1796.83" cy="616.37" r="122.91"/><circle class="cls-38" cx="2020.41" cy="591.67" r="147.62"/><circle class="cls-32" cx="2020.41" cy="591.67" r="147.62"/><text class="cls-39" transform="translate(1426.79 900.54)">SVM</text><text class="cls-39" transform="translate(1673.92 813.43)">RF</text><text class="cls-39" transform="translate(1750.47 556.65)">MLP</text><text class="cls-39" transform="translate(1965.62 513.12)">LSTM</text><text class="cls-39" transform="translate(2065.16 828.04)">CNN</text><text class="cls-40" transform="translate(1858.51 827.08)">kNN</text><text class="cls-39" transform="translate(1574.59 538.05)">RL</text><text class="cls-2" transform="translate(1.8 58.59)"><tspan class="cls-41">C</tspan><tspan x="39.83" y="0">o</tspan><tspan class="cls-42" x="78.26" y="0">n</tspan><tspan x="116.83" y="0">tinuous </tspan><tspan class="cls-43" x="353.36" y="0">k</tspan><tspan x="387.38" y="0">inem</tspan><tspan class="cls-42" x="536.05" y="0">a</tspan><tspan x="569.51" y="0">tic</tspan><tspan x="0" y="84">d</tspan><tspan class="cls-42" x="39.48" y="84">a</tspan><tspan x="72.94" y="84">ta</tspan></text><line class="cls-44" x1="322.76" y1="184.84" x2="322.76" y2="617.65"/><line class="cls-45" x1="432.2" y1="261.57" x2="432.2" y2="694.39"/><line class="cls-45" x1="541.65" y1="341.8" x2="541.65" y2="774.61"/><line class="cls-44" x1="323.71" y1="617.65" x2="1142.64" y2="617.65"/><line class="cls-45" x1="432.2" y1="694.39" x2="865.02" y2="694.39"/><line class="cls-45" x1="541.65" y1="774.61" x2="974.46" y2="774.61"/><line class="cls-1" x1="635.9" y1="847.24" x2="1068.71" y2="847.24"/><line class="cls-46" x1="322.76" y1="617.65" x2="635.9" y2="847.24"/><line class="cls-44" x1="322.76" y1="617.65" x2="17.34" y2="807.81"/><line class="cls-47" x1="432.2" y1="696.05" x2="126.79" y2="886.21"/><line class="cls-47" x1="541.65" y1="774.92" x2="236.23" y2="965.09"/><line class="cls-48" x1="635.9" y1="847.24" x2="330.48" y2="1037.41"/><text class="cls-49" transform="translate(1063.27 601.91)"><tspan class="cls-50">F</tspan><tspan class="cls-51" x="12.45" y="0">r</tspan><tspan x="21.01" y="0">o</tspan><tspan class="cls-52" x="35.83" y="0">n</tspan><tspan x="50.71" y="0">tal</tspan></text><text class="cls-49" transform="translate(296.31 229.43)">L<tspan x="0" y="32.4">o</tspan><tspan x="0" y="64.8">n</tspan><tspan x="0" y="97.2">g</tspan><tspan x="0" y="129.6">i</tspan><tspan x="0" y="162">t</tspan><tspan x="0" y="194.4">u</tspan><tspan x="0" y="226.8">d</tspan><tspan x="0" y="259.2">i</tspan><tspan x="0" y="291.6">n</tspan><tspan x="0" y="324">a</tspan><tspan x="0" y="356.4">l</tspan></text><text class="cls-49" transform="translate(11.98 797.25) rotate(-32)"><tspan class="cls-53">S</tspan><tspan class="cls-54" x="13.39" y="0">a</tspan><tspan class="cls-55" x="26.41" y="0">g</tspan><tspan x="41.34" y="0">ittal</tspan></text><text class="cls-49" transform="translate(999.27 1105.09) rotate(36)"><tspan class="cls-56">T</tspan><tspan x="13.09" y="0">ime</tspan></text><line class="cls-1" x1="635.9" y1="849.13" x2="1037.06" y2="1147.76"/><circle class="cls-57" cx="758.33" cy="645.67" r="9.69"/><circle class="cls-57" cx="724.87" cy="727.65" r="9.69"/><circle class="cls-57" cx="657.59" cy="694.38" r="9.69"/><circle class="cls-57" cx="661.69" cy="791.79" r="9.69"/><circle class="cls-57" cx="724.87" cy="766.26" r="9.69"/><circle class="cls-57" cx="552.24" cy="963.93" r="9.69"/><circle class="cls-57" cx="699.37" cy="896.4" r="9.69"/><circle class="cls-57" cx="671.38" cy="963.93" r="9.69"/><circle class="cls-57" cx="852.07" cy="1110.64" r="9.69"/><circle class="cls-57" cx="912.24" cy="1215.93" r="9.69"/><circle class="cls-57" cx="912.24" cy="775.95" r="9.69"/><circle class="cls-57" cx="852.07" cy="868.42" r="9.69"/><circle class="cls-57" cx="921.93" cy="1028.75" r="9.69"/><circle class="cls-57" cx="842.38" cy="973.62" r="9.69"/><circle class="cls-57" cx="931.61" cy="935.32" r="9.69"/><circle class="cls-57" cx="885.57" cy="878.11" r="9.69"/><circle class="cls-57" cx="699.37" cy="973.62" r="9.69"/><circle class="cls-57" cx="699.37" cy="801.48" r="9.69"/><circle class="cls-57" cx="998.55" cy="851.37" r="9.69"/><circle class="cls-57" cx="1025.95" cy="841.68" r="9.69"/><circle class="cls-57" cx="958.25" cy="996.53" r="9.69"/><path class="cls-58" d="M761.62,917.79a68.61,68.61,0,0,1-40.71-22.94c-5.35-6.26-9.74-13.66-16.78-17.93-10.82-6.56-25.87-3.47-34.76,5.54s-12,22.7-10,35.21c1,6,3,12.11,2,18.15-1.52,9-9.37,15.6-12.7,24.11-6.39,16.28-34.37,4.92-51.13-2.82-7.75-3.58-28.28-14-44-14-16.35,0-24,29.38-27,45.46-2.3,12.43,2.83,20.37,5.53,24.77,9.16,14.95,102.1,91.73,112.66,105.74,18.26,24.23,40,48,68.91,57.17,23,7.33,46.63,15,65.11,30.53,13,11,23.9,26,40.32,30.57,13.06,3.64,27-.22,40.53,1.12,16,1.58,30.46,10.35,46.2,13.83s35.86-1.06,40.83-16.39c2.85-8.76-.32-18.51-5.65-26s-12.63-13.33-19.33-19.65c-19.36-18.25-34.58-42.69-35.2-69.29-.5-21.54-2.35-43.3-9.11-63.76s-18.8-39.71-36.5-52C828.9,997,814.93,992.12,802.25,985S777.52,967.51,774,953.41c-1.82-7.33-2.17-14.93-2.55-22.47C771.12,924.22,773.08,920.87,761.62,917.79Z"/><path class="cls-58" d="M756.53,605.91c-24.88,3.09-39.65,5.81-45.25,26a9.33,9.33,0,0,1-5.21,6.07c-24.53,10.61-54,1.68-79,11.27-27.94,10.73-43.16,46.45-31.56,74a80.1,80.1,0,0,1,22.4,57,11.83,11.83,0,0,1-5.33,9.74A355.7,355.7,0,0,0,494.56,917.75a230.05,230.05,0,0,0-11.33,23.59c-11.22,27.73,1,61.48,28.75,72.74,24.26,9.87,52.22,4.43,75.79-6.82,6.4-3,12.66-6.56,18-11.29,17.44-15.64,21.66-42,38.55-58.29,12.59-12.12,30.56-16.9,48-18.64,5.11-.51,10.24-.8,15.37-1,22-1,40.61-17.08,44.13-38.83q1.2-7.35,2.15-14.75c.51-3.89,1-7.94-.23-11.68-1.13-3.54-3.6-6.46-5.85-9.41-12.29-16.08-19.6-35.9,18.72-102.26,7.65-10.94,3.55-25.86-.75-38.51s-8.22-27.67-.32-38.44c3.74-5.11,9.58-8.27,13.76-13,6.23-7.06,8-16.46,8.15-26.1a19.93,19.93,0,0,0-21.21-20.2C763.18,605,760,605.41,756.53,605.91Z"/><circle class="cls-57" cx="667.28" cy="1038.44" r="9.69"/><circle class="cls-57" cx="758.33" cy="1057.82" r="9.69"/><circle class="cls-57" cx="734.56" cy="1110.64" r="9.69"/><circle class="cls-57" cx="820.9" cy="1038.44" r="9.69"/><circle class="cls-57" cx="814.4" cy="1187.56" r="9.69"/><circle class="cls-57" cx="724.87" cy="1081.92" r="9.69"/><circle class="cls-57" cx="768.02" cy="1197.25" r="9.69"/><path class="cls-58" d="M1019.33,749.24c-5.46-.94-11-1.61-16.79-2.2L956.79,732.4c-25.43-14.42-59.08-10.06-80.85,8.84-30,26-33.45,71.29-55.6,104.26-7.48,11.14-17,20.73-25.25,31.34l-52,67.06A75.26,75.26,0,0,0,735,955.78c-5.27,10.42-5.39,22.59-5.41,34.26,0,21.55-.06,43.17,2.3,64.58a45.88,45.88,0,0,0,19.92,32.55L792,1114.73a116.65,116.65,0,0,0,24.81,12.38c7.3,2.36,15,4,22.7,3.54,9.31-.58,17.91-5,25.88-9.89,29.16-17.78,54.06-42.14,84.11-58.36,7-3.79,14.37-7.18,20.32-12.49,6.72-6,11.18-14.07,15.52-22l11.76-21.43a34,34,0,0,0,3.6-21.8c-7.44-46.63,14.46-91.13,41-129,6.39-9.1,13.15-18.09,17.4-28.36a70.43,70.43,0,0,0,4.24-14.74c.41-2.34.71-4.71.9-7.09C1066.42,778,1046.52,753.94,1019.33,749.24Z"/></svg>