<svg id="Layer_1" data-name="Layer 1" xmlns="http://www.w3.org/2000/svg" viewBox="0 0 401 301"><defs><style>.cls-1{fill:#1a1332;}.cls-1,.cls-28{stroke:#000;}.cls-1,.cls-10,.cls-11,.cls-15,.cls-21,.cls-28,.cls-29{stroke-miterlimit:10;}.cls-2{font-size:8px;}.cls-12,.cls-2,.cls-26{font-family:SourceSansPro-Regular, SourceSansPro Regular;}.cls-3{letter-spacing:0.01em;}.cls-4{letter-spacing:-0.01em;}.cls-5{letter-spacing:0em;}.cls-6{letter-spacing:-0.01em;}.cls-7{letter-spacing:0.02em;}.cls-8{letter-spacing:0em;}.cls-9{letter-spacing:0em;}.cls-10{fill:#fff;}.cls-10,.cls-15,.cls-29{stroke:#fff;}.cls-10,.cls-21{stroke-width:0.25px;}.cls-11{fill:#b7cfda;stroke:#b7cfda;}.cls-12,.cls-26{font-size:12px;}.cls-13{letter-spacing:-0.01em;}.cls-14{letter-spacing:0em;}.cls-15{fill:#431f52;opacity:0.7;}.cls-15,.cls-29{stroke-width:0.4px;}.cls-16{letter-spacing:-0.01em;}.cls-17{letter-spacing:-0.01em;}.cls-18{letter-spacing:0em;}.cls-19{letter-spacing:-0.01em;}.cls-20{letter-spacing:-0.01em;}.cls-21{fill:#f9b875;stroke:#ff3721;}.cls-22{letter-spacing:0.01em;}.cls-23{letter-spacing:0em;}.cls-24{letter-spacing:-0.01em;}.cls-25{letter-spacing:0.02em;}.cls-26{letter-spacing:0em;}.cls-27{letter-spacing:0em;}.cls-28,.cls-29{fill:none;}.cls-29{stroke-dasharray:8 5 8 5 8 5;}</style></defs><rect class="cls-1" x="0.5" y="0.5" width="400" height="300"/><text class="cls-2" transform="translate(329.58 242.44)"><tspan class="cls-3">G</tspan><tspan x="5.21" y="0">ene</tspan><tspan class="cls-4" x="17.66" y="0">r</tspan><tspan class="cls-5" x="20.24" y="0">a</tspan><tspan class="cls-6" x="24.06" y="0">t</tspan><tspan x="26.66" y="0">ed</tspan><tspan class="cls-7" x="0" y="9.6">k</tspan><tspan x="3.89" y="9.6">inem</tspan><tspan class="cls-5" x="20.88" y="9.6">a</tspan><tspan x="24.7" y="9.6">tic d</tspan><tspan class="cls-8" x="39.02" y="9.6">a</tspan><tspan class="cls-9" x="42.84" y="9.6">ta</tspan></text><rect class="cls-10" x="91.04" y="149.87" width="2.21" height="1.27"/><polyline class="cls-10" points="93.24 150.52 93.25 150.52 93.27 150.52"/><path class="cls-10" d="M93.28,151.81l2.16-1.28H93.27v1.29Z"/><path class="cls-10" d="M93.28,149.19l2.16,1.29H93.27v-1.29Z"/><rect class="cls-10" x="144.37" y="149.87" width="2.21" height="1.27"/><polyline class="cls-10" points="146.57 150.52 146.59 150.52 146.61 150.52"/><path class="cls-10" d="M146.61,151.81l2.16-1.28s0,0,0,0h-2.16v1.29Z"/><path class="cls-10" d="M146.61,149.19l2.17,1.29h-2.17v-1.29Z"/><rect class="cls-10" x="272.94" y="149.87" width="2.21" height="1.27"/><polyline class="cls-10" points="275.14 150.52 275.16 150.52 275.18 150.52"/><path class="cls-10" d="M275.18,151.81l2.16-1.28s0,0,0,0h-2.16v1.29Z"/><path class="cls-10" d="M275.18,149.19l2.16,1.29h-2.16v-1.29Z"/><rect class="cls-10" x="323.53" y="149.87" width="2.21" height="1.27"/><polyline class="cls-10" points="325.73 150.52 325.75 150.52 325.76 150.52"/><path class="cls-10" d="M325.77,151.81l2.16-1.28h-2.16v1.29Z"/><path class="cls-10" d="M325.77,149.19l2.16,1.29h-2.16v-1.29Z"/><polygon class="cls-11" points="100.89 58.44 100.89 228.44 138.86 206.94 138.86 79.95 100.89 58.44"/><text class="cls-12" transform="translate(100.39 52.36)">En<tspan class="cls-13" x="12.56" y="0">c</tspan><tspan x="17.87" y="0">oder</tspan></text><polygon class="cls-11" points="319.42 59.44 319.42 229.44 281.45 207.94 281.45 80.95 319.42 59.44"/><text class="cls-12" transform="translate(277.35 52.36)"><tspan class="cls-14">D</tspan><tspan x="8.04" y="0">e</tspan><tspan class="cls-13" x="14.05" y="0">c</tspan><tspan x="19.36" y="0">oder</tspan></text><rect class="cls-11" x="153.16" y="80" width="116" height="127"/><rect class="cls-15" x="211.16" y="79.57" width="21" height="127.88"/><text class="cls-2" transform="translate(207.79 75.88)"><tspan class="cls-16">r</tspan><tspan x="2.54" y="0">em</tspan><tspan class="cls-17" x="13.22" y="0">o</tspan><tspan class="cls-8" x="17.55" y="0">v</tspan><tspan x="21.37" y="0">al</tspan></text><text class="cls-12" transform="translate(169.41 230.62)">L<tspan class="cls-18" x="5.66" y="0">a</tspan><tspan class="cls-19" x="11.4" y="0">t</tspan><tspan x="15.3" y="0">e</tspan><tspan class="cls-18" x="21.31" y="0">n</tspan><tspan x="27.92" y="0">t </tspan><tspan class="cls-20" x="34.44" y="0">f</tspan><tspan x="37.79" y="0">e</tspan><tspan class="cls-18" x="43.8" y="0">a</tspan><tspan x="49.54" y="0">tu</tspan><tspan class="cls-16" x="60.12" y="0">r</tspan><tspan x="63.92" y="0">es</tspan></text><path class="cls-11" d="M55.51,58.44v170H86.09v-170ZM84.23,226.91H57.37V60H84.23Z"/><path class="cls-21" d="M83.8,60.61V226.28H78.41q-2.14-4.32-4.28-8.67c-.78-1.56-1.63-3.21-3.11-4.07-2-1.17-4.9-.57-6-3.54a3.12,3.12,0,0,1,.37-2.75c1.55-2.27,3.8-1.46,5.84-1.68a6.28,6.28,0,0,0,4.2-2.42,1.09,1.09,0,0,0-.13-1.43l-.06,0a1.09,1.09,0,0,1-.06-1.51l.76-.82a.64.64,0,0,0,0-.86c-.13-.12-.31-.17-.45-.28-.6-.49,0-1.46.54-2l3.07-2.83a1.06,1.06,0,0,0-.5-1.81c-2-.4-4.3,0-6.42-.22a11.64,11.64,0,0,1-6.79-3.08,2.82,2.82,0,0,1-.85-1.62c-.42-2.74,1.68-4.26,3.77-4.79,1.51-.37,3.08-.34,4.61-.63a11.6,11.6,0,0,0,5.49-2.73,1.07,1.07,0,0,0-.28-1.79c-1.09-.42-2.19-.83-3.3-1.21a1.05,1.05,0,0,1-.24-1.86l1.91-1.28a1.24,1.24,0,0,0,.42-.4c.19-.38,0-1.09-.46-1s-1.73.07-1.21-.48l1.52-1a.66.66,0,0,0-.08-1,9.12,9.12,0,0,0-4.12-1.73c-2.78-.64,1.09-1.36,1.45-2.16a1.28,1.28,0,0,0-.6-1.5,3.71,3.71,0,0,0-1.65-.39,26.49,26.49,0,0,1-5.7-1.11,1.07,1.07,0,0,1-.29-1.86,22.13,22.13,0,0,1,4.5-2.52,1,1,0,0,0-.16-2,53.23,53.23,0,0,1-6.43-1.66c-3.29-.88,3-2.86,5.07-3s4.19,0,6.09-.79a6.28,6.28,0,0,0,3.42-3.83,2.07,2.07,0,0,0-1.08-2.47q-.57-.29-1.17-.54a1.05,1.05,0,0,1,.08-1.95l.46-.15a7.13,7.13,0,0,0,3.73-2.17,3,3,0,0,0,.3-3,1.1,1.1,0,0,1,.4-1.42,3.69,3.69,0,0,0,.4-.29c1.09-.61-.81-1.19-.69-1.92.2-1.24.89-2.49-.92-3.69a3.66,3.66,0,0,0-1.5-.54A16.44,16.44,0,0,1,71,125a20,20,0,0,1-5.75-7.37,42.83,42.83,0,0,1-3.81-11.27,2.08,2.08,0,0,1,.68-2c3.11-2.6,7.11-1.47,10.77-2,1.38-.2,2.82-.71,3.23-2.49a1.13,1.13,0,0,0-.3-1c-.7-.76.06-2,1-2.35a14.05,14.05,0,0,0,2.6-.92c1.46-1,1.31-3.3,2-5,.44-1,1.25-2,1.1-3.12a3.85,3.85,0,0,0-.87-1.69,60.44,60.44,0,0,1-5.78-9.59,1.1,1.1,0,0,1,.25-1.28c.44-.37.88-.73,1.33-1.08A1,1,0,0,0,77,72l-2.83-.59a5.49,5.49,0,0,1-2.09-.77,2.07,2.07,0,0,1-.92-2c.18-1,1.14-1.47,1.85-2.11a5.08,5.08,0,0,0,.94-5.9Z"/><text class="cls-12" transform="translate(56.86 52.36)"><tspan class="cls-22">I</tspan><tspan x="2.99" y="0">nput</tspan></text><text class="cls-2" transform="translate(54.25 242.44)"><tspan class="cls-23">R</tspan><tspan x="4.34" y="0">e</tspan><tspan class="cls-6" x="8.34" y="0">c</tspan><tspan x="11.88" y="0">o</tspan><tspan class="cls-24" x="16.27" y="0">r</tspan><tspan x="18.81" y="0">ded</tspan><tspan class="cls-25" x="-17.5" y="9.6">k</tspan><tspan x="-13.62" y="9.6">inem</tspan><tspan class="cls-8" x="3.38" y="9.6">a</tspan><tspan x="7.2" y="9.6">tic d</tspan><tspan class="cls-8" x="21.51" y="9.6">a</tspan><tspan class="cls-9" x="25.34" y="9.6">ta</tspan></text><text class="cls-26" transform="translate(326.94 52.36)">O<tspan class="cls-27" x="8.3" y="0">utput</tspan></text><path class="cls-28" d="M352.58,193.79a1.15,1.15,0,0,0-.34-.13"/><path class="cls-28" d="M352.79,230.13c-.17-.35-.34-.7-.52-1"/><path class="cls-28" d="M347.81,62.14a4.14,4.14,0,0,0-.58-1"/><path class="cls-28" d="M352.71,112.39a.38.38,0,0,0-.09-.09"/><path class="cls-11" d="M331,60.61v170h30.59v-170Zm28.73,168.47H332.84V62.14h26.87Z"/><path class="cls-21" d="M359.71,62.14V229.08h-7.44l-4.5-9.18c-.77-1.58-1.63-3.25-3.11-4.1-2-1.18-4.9-.59-6-3.58a3.11,3.11,0,0,1,.36-2.76c1.55-2.29,3.8-1.47,5.85-1.7a6.22,6.22,0,0,0,4.19-2.43,1.09,1.09,0,0,0-.13-1.44l-.06,0a1.09,1.09,0,0,1-.06-1.51l.76-.83a.63.63,0,0,0,0-.87c-.13-.12-.31-.17-.45-.29-.6-.48,0-1.46.54-2l3.07-2.87a1.06,1.06,0,0,0-.12-1.65s0,0,0,0a14.67,14.67,0,0,1-4.11-9.3c0-2.05,2-2.6,3.58-4a1.09,1.09,0,0,0-.27-1.81c-1.1-.43-2.2-.83-3.31-1.21a1.07,1.07,0,0,1-.24-1.88l1.91-1.3a1.15,1.15,0,0,0,.42-.4c.19-.38-.05-1.1-.46-1s-1.73.07-1.21-.48l1.52-1a.67.67,0,0,0-.07-1.06,9,9,0,0,0-4.13-1.73c-2.78-.66,1.09-1.38,1.45-2.19a1.29,1.29,0,0,0-.59-1.51,3.64,3.64,0,0,0-1.66-.38,27.15,27.15,0,0,1-5.7-1.13,1.07,1.07,0,0,1-.29-1.87,22.17,22.17,0,0,1,4.5-2.53,1.06,1.06,0,0,0-.16-2,50.88,50.88,0,0,1-6.42-1.67c-3.3-.89,3-2.87,5.06-3.06s4.2,0,6.1-.79a6.38,6.38,0,0,0,3.41-3.86,2.1,2.1,0,0,0-1.08-2.5c-.38-.19-.77-.37-1.16-.54a1.06,1.06,0,0,1,.07-2l.46-.15a7.1,7.1,0,0,0,3.73-2.19,3.12,3.12,0,0,0,.31-3,1.09,1.09,0,0,1,.4-1.42l.39-.29c1.09-.62-.81-1.21-.69-1.94.2-1.26.89-2.52-.92-3.72a15.75,15.75,0,0,0-1.5-.54c-6.9-3.68,2.54-15.12.79-16.94-9.63-11.88.34-4.49-3-11.15-.17-.34-.05-.74-.3-1-.7-.78.06-2,.95-2.37a13.41,13.41,0,0,0,2.6-.94c1.46-1,1.31-3.31,2-5,.43-1,1.24-2,1.09-3.15a3.92,3.92,0,0,0-.87-1.71,61.1,61.1,0,0,1-5.78-9.66,1.09,1.09,0,0,1,.26-1.28c.43-.38.87-.74,1.33-1.1a1.07,1.07,0,0,0-.39-1.88l-2.83-.59a5.33,5.33,0,0,1-2.09-.77,2.11,2.11,0,0,1-.92-2c.18-1,1.14-1.49,1.85-2.13a5.14,5.14,0,0,0,1.14-5.5Z"/><rect class="cls-15" x="333.4" y="177.1" width="26.31" height="17.5" transform="translate(693.12 371.71) rotate(180)"/><rect class="cls-15" x="333.4" y="98.02" width="26.31" height="30.01" transform="translate(693.12 226.05) rotate(180)"/><line class="cls-29" x1="330.7" y1="98.02" x2="57.88" y2="98.02"/><line class="cls-29" x1="330.7" y1="128.03" x2="57.88" y2="128.03"/><line class="cls-29" x1="330.76" y1="177.1" x2="57.88" y2="177.1"/><line class="cls-29" x1="330.76" y1="194.6" x2="57.88" y2="194.6"/></svg>