<svg id="Layer_1" data-name="Layer 1" xmlns="http://www.w3.org/2000/svg" viewBox="0 0 2561 1441"><defs><style>.cls-1{fill:#1d183a;stroke:#000;}.cls-1,.cls-2,.cls-33,.cls-45,.cls-46,.cls-47,.cls-48,.cls-49,.cls-58,.cls-59{stroke-miterlimit:10;}.cls-2,.cls-33,.cls-45,.cls-46,.cls-47,.cls-48,.cls-49{fill:none;stroke-width:3px;}.cls-2,.cls-46{stroke:#f3a6d5;}.cls-3{font-size:70px;}.cls-3,.cls-40,.cls-41,.cls-50,.cls-59,.cls-7{fill:#fff;}.cls-3,.cls-40,.cls-41,.cls-50{font-family:SourceSansPro-Regular, SourceSansPro Regular;}.cls-4{letter-spacing:0.03em;}.cls-5{letter-spacing:0em;}.cls-6{letter-spacing:-0.01em;}.cls-7{font-size:26.68px;font-family:SourceSansPro-It, SourceSansPro It;font-style:italic;}.cls-8{letter-spacing:0.01em;}.cls-9{letter-spacing:-0.01em;}.cls-10{letter-spacing:0.01em;}.cls-11{letter-spacing:0em;}.cls-12{letter-spacing:-0.01em;}.cls-13{letter-spacing:0em;}.cls-14{letter-spacing:0.02em;}.cls-15{letter-spacing:-0.05em;}.cls-16{letter-spacing:-0.1em;}.cls-17{letter-spacing:-0.01em;}.cls-18{letter-spacing:0em;}.cls-19{letter-spacing:0.02em;}.cls-20{letter-spacing:0.02em;}.cls-21{letter-spacing:0em;}.cls-22{letter-spacing:-0.04em;}.cls-23{letter-spacing:-0.01em;}.cls-24{letter-spacing:-0.01em;}.cls-25{letter-spacing:0.01em;}.cls-26{letter-spacing:0em;}.cls-27{letter-spacing:-0.04em;}.cls-28{letter-spacing:-0.03em;}.cls-29{letter-spacing:-0.01em;}.cls-30{letter-spacing:0em;}.cls-31{letter-spacing:-0.04em;}.cls-32{fill:#ae00ff;}.cls-32,.cls-34,.cls-35,.cls-36,.cls-37,.cls-38,.cls-39{opacity:0.4;}.cls-33,.cls-58,.cls-59{stroke:#fff;}.cls-34{fill:#ff00ea;}.cls-35{fill:#00ffd4;}.cls-36{fill:#e3f700;}.cls-37{fill:#d500ff;}.cls-38{fill:#00b7ff;}.cls-39{fill:#00e645;}.cls-40{font-size:49.34px;}.cls-41{font-size:45.74px;}.cls-42{letter-spacing:-0.01em;}.cls-43{letter-spacing:0em;}.cls-44{letter-spacing:0.02em;}.cls-45{stroke:#f7a6d7;}.cls-45,.cls-46,.cls-47,.cls-48{opacity:0.3;}.cls-46,.cls-48{stroke-dasharray:5 4 5 4 5 4;}.cls-47{stroke:#f1a6d4;}.cls-48,.cls-49{stroke:#f5a6d6;}.cls-50{font-size:27px;}.cls-51{letter-spacing:-0.03em;}.cls-52{letter-spacing:-0.01em;}.cls-53{letter-spacing:0em;}.cls-54{letter-spacing:0em;}.cls-55{letter-spacing:0em;}.cls-56{letter-spacing:-0.01em;}.cls-57{letter-spacing:-0.01em;}.cls-58{fill:#4f6ab3;stroke-width:0.25px;}.cls-59{opacity:0.2;}</style></defs><rect class="cls-1" x="0.5" y="0.5" width="2560" height="1440"/><line class="cls-2" x1="755.4" y1="494.38" x2="755.4" y2="927.19"/><text class="cls-3" transform="translate(1741.18 141.91)">Unsupe<tspan class="cls-4" x="225.33" y="0">r</tspan><tspan x="249.97" y="0">vised lea</tspan><tspan class="cls-5" x="502.45" y="0">r</tspan><tspan x="525.62" y="0">ning</tspan><tspan class="cls-6" x="334.8" y="84">t</tspan><tspan x="357.55" y="84">echniques</tspan></text><text class="cls-7" transform="translate(1622.37 1091.46)"><tspan class="cls-8">S</tspan><tspan x="13.31" y="0">e</tspan><tspan class="cls-9" x="26.68" y="0">r</tspan><tspan x="35.14" y="0">ena, R. S., </tspan><tspan class="cls-10" x="142.74" y="0">H</tspan><tspan x="160.4" y="0">i</tspan><tspan class="cls-11" x="166.64" y="0">n</tspan><tspan class="cls-12" x="181.34" y="0">t</tspan><tspan class="cls-13" x="190.01" y="0">e</tspan><tspan class="cls-14" x="203.38" y="0">r</tspan><tspan x="212.77" y="0">wimme</tspan><tspan class="cls-15" x="296.52" y="0">r</tspan><tspan x="303.83" y="0">, </tspan><tspan class="cls-16" x="315.01" y="0">F</tspan><tspan x="325.41" y="0">., &amp; Bu</tspan><tspan class="cls-17" x="393.07" y="0">r</tspan><tspan class="cls-18" x="401.58" y="0">g</tspan><tspan class="cls-19" x="416.5" y="0">k</tspan><tspan x="429.49" y="0">a</tspan><tspan class="cls-20" x="442.35" y="0">r</tspan><tspan class="cls-21" x="451.71" y="0">t</tspan><tspan x="460.46" y="0">, R.</tspan><tspan class="cls-22" x="491.52" y="0"> </tspan><tspan class="cls-23" x="496.08" y="0">T</tspan><tspan class="cls-18" x="509.16" y="0">he </tspan><tspan class="cls-24" x="542.98" y="0">U</tspan><tspan class="cls-18" x="560.09" y="0">se of </tspan><tspan class="cls-21" x="617.77" y="0">A</tspan><tspan class="cls-20" x="634.02" y="0">r</tspan><tspan x="643.38" y="0">tificial </tspan><tspan class="cls-25" x="715.42" y="0">I</tspan><tspan class="cls-26" x="722.06" y="0">n</tspan><tspan class="cls-12" x="736.76" y="0">t</tspan><tspan x="745.43" y="0">elli</tspan><tspan x="112.77" y="32.02">gen</tspan><tspan class="cls-12" x="155.86" y="32.02">c</tspan><tspan x="167.65" y="32.02">e and</tspan><tspan class="cls-27" x="229.39" y="32.02"> </tspan><tspan class="cls-28" x="234.09" y="32.02">W</tspan><tspan class="cls-13" x="255.78" y="32.02">ea</tspan><tspan class="cls-29" x="282" y="32.02">r</tspan><tspan class="cls-13" x="290.59" y="32.02">able IM</tspan><tspan class="cls-12" x="371.78" y="32.02">U</tspan><tspan x="388.88" y="32.02">s in </tspan><tspan class="cls-8" x="431.81" y="32.02">M</tspan><tspan x="453.42" y="32.02">edicine: A </tspan><tspan class="cls-17" x="567.61" y="32.02">S</tspan><tspan class="cls-12" x="580.55" y="32.02">y</tspan><tspan x="592.96" y="32.02">s</tspan><tspan class="cls-12" x="603.52" y="32.02">t</tspan><tspan x="612.19" y="32.02">em</tspan><tspan class="cls-26" x="647.81" y="32.02">a</tspan><tspan x="660.56" y="32.02">tic </tspan><tspan class="cls-30" x="693.24" y="32.02">R</tspan><tspan x="707.71" y="32.02">evie</tspan><tspan class="cls-31" x="753.51" y="32.02">w</tspan><tspan x="772.11" y="32.02">.</tspan></text><circle class="cls-32" cx="1637.67" cy="857.73" r="165.72"/><circle class="cls-33" cx="1637.67" cy="857.73" r="165.72"/><circle class="cls-34" cx="1859.69" cy="822.61" r="103.75"/><circle class="cls-33" cx="1859.69" cy="822.61" r="103.75"/><circle class="cls-35" cx="2061.02" cy="813.08" r="121.07"/><circle class="cls-33" cx="2061.02" cy="813.08" r="121.07"/><circle class="cls-36" cx="2263.43" cy="816.63" r="124.62"/><circle class="cls-33" cx="2263.43" cy="816.63" r="124.62"/><circle class="cls-37" cx="1764.42" cy="668.66" r="107.25"/><circle class="cls-33" cx="1764.42" cy="668.66" r="107.25"/><circle class="cls-38" cx="1955.75" cy="699.7" r="122.91"/><circle class="cls-33" cx="1955.75" cy="699.7" r="122.91"/><circle class="cls-39" cx="2179.33" cy="674.99" r="147.62"/><circle class="cls-33" cx="2179.33" cy="674.99" r="147.62"/><text class="cls-40" transform="translate(1585.71 983.86)">SVM</text><text class="cls-40" transform="translate(1832.84 896.75)">RF</text><text class="cls-40" transform="translate(1909.39 639.97)">MLP</text><text class="cls-40" transform="translate(2124.54 596.44)">LSTM</text><text class="cls-40" transform="translate(2224.08 911.36)">CNN</text><text class="cls-41" transform="translate(2017.43 910.4)">kNN</text><text class="cls-40" transform="translate(1733.52 621.38)">RL</text><text class="cls-3" transform="translate(160.73 141.91)"><tspan class="cls-42">C</tspan><tspan x="39.83" y="0">o</tspan><tspan class="cls-43" x="78.26" y="0">n</tspan><tspan x="116.83" y="0">tinuous </tspan><tspan class="cls-44" x="353.36" y="0">k</tspan><tspan x="387.38" y="0">inem</tspan><tspan class="cls-43" x="536.05" y="0">a</tspan><tspan x="569.51" y="0">tic</tspan><tspan x="0" y="84">d</tspan><tspan class="cls-43" x="39.48" y="84">a</tspan><tspan x="72.94" y="84">ta</tspan></text><line class="cls-45" x1="481.69" y1="268.16" x2="481.69" y2="700.97"/><line class="cls-46" x1="591.13" y1="344.9" x2="591.13" y2="777.71"/><line class="cls-46" x1="700.57" y1="425.12" x2="700.57" y2="857.93"/><line class="cls-45" x1="482.63" y1="700.97" x2="1301.56" y2="700.97"/><line class="cls-46" x1="591.13" y1="777.71" x2="1023.94" y2="777.71"/><line class="cls-46" x1="700.57" y1="857.93" x2="1133.38" y2="857.93"/><line class="cls-2" x1="794.82" y1="930.56" x2="1227.64" y2="930.56"/><line class="cls-47" x1="481.69" y1="700.97" x2="794.82" y2="930.56"/><line class="cls-45" x1="481.69" y1="700.97" x2="176.27" y2="891.14"/><line class="cls-48" x1="591.13" y1="779.37" x2="285.71" y2="969.53"/><line class="cls-48" x1="700.57" y1="858.25" x2="395.15" y2="1048.41"/><line class="cls-49" x1="794.82" y1="930.56" x2="489.41" y2="1120.73"/><text class="cls-50" transform="translate(1222.19 685.24)"><tspan class="cls-51">F</tspan><tspan class="cls-52" x="12.45" y="0">r</tspan><tspan x="21.01" y="0">o</tspan><tspan class="cls-53" x="35.83" y="0">n</tspan><tspan x="50.71" y="0">tal</tspan></text><text class="cls-50" transform="translate(455.24 312.75)">L<tspan x="0" y="32.4">o</tspan><tspan x="0" y="64.8">n</tspan><tspan x="0" y="97.2">g</tspan><tspan x="0" y="129.6">i</tspan><tspan x="0" y="162">t</tspan><tspan x="0" y="194.4">u</tspan><tspan x="0" y="226.8">d</tspan><tspan x="0" y="259.2">i</tspan><tspan x="0" y="291.6">n</tspan><tspan x="0" y="324">a</tspan><tspan x="0" y="356.4">l</tspan></text><text class="cls-50" transform="translate(170.9 880.57) rotate(-32)"><tspan class="cls-54">S</tspan><tspan class="cls-55" x="13.39" y="0">a</tspan><tspan class="cls-56" x="26.41" y="0">g</tspan><tspan x="41.34" y="0">ittal</tspan></text><text class="cls-50" transform="translate(1158.19 1188.42) rotate(36)"><tspan class="cls-57">T</tspan><tspan x="13.09" y="0">ime</tspan></text><line class="cls-2" x1="794.82" y1="932.46" x2="1195.99" y2="1231.08"/><circle class="cls-58" cx="917.25" cy="728.99" r="9.69"/><circle class="cls-58" cx="883.8" cy="810.97" r="9.69"/><circle class="cls-58" cx="816.51" cy="777.71" r="9.69"/><circle class="cls-58" cx="820.61" cy="875.11" r="9.69"/><circle class="cls-58" cx="883.8" cy="849.59" r="9.69"/><circle class="cls-58" cx="711.17" cy="1047.25" r="9.69"/><circle class="cls-58" cx="858.29" cy="979.72" r="9.69"/><circle class="cls-58" cx="830.3" cy="1047.25" r="9.69"/><circle class="cls-58" cx="1011" cy="1193.97" r="9.69"/><circle class="cls-58" cx="1071.16" cy="1299.26" r="9.69"/><circle class="cls-58" cx="1071.16" cy="859.27" r="9.69"/><circle class="cls-58" cx="1011" cy="951.74" r="9.69"/><circle class="cls-58" cx="1080.85" cy="1112.07" r="9.69"/><circle class="cls-58" cx="1001.31" cy="1056.94" r="9.69"/><circle class="cls-58" cx="1090.54" cy="1018.64" r="9.69"/><circle class="cls-58" cx="1044.49" cy="961.43" r="9.69"/><circle class="cls-58" cx="858.29" cy="1056.94" r="9.69"/><circle class="cls-58" cx="858.29" cy="884.8" r="9.69"/><circle class="cls-58" cx="1157.48" cy="934.69" r="9.69"/><circle class="cls-58" cx="1184.88" cy="925" r="9.69"/><circle class="cls-58" cx="1117.17" cy="1079.85" r="9.69"/><path class="cls-59" d="M920.54,1001.11a68.59,68.59,0,0,1-40.71-22.94c-5.34-6.25-9.74-13.66-16.77-17.92-10.82-6.57-25.87-3.48-34.76,5.54s-12,22.7-10,35.2c1,6,3,12.12,2,18.15-1.51,9-9.36,15.6-12.7,24.11-6.38,16.28-34.37,4.92-51.13-2.82-7.75-3.57-28.27-14-43.95-14-16.35,0-24,29.39-27,45.46-2.3,12.44,2.82,20.37,5.52,24.77,9.17,15,102.11,91.73,112.66,105.74,18.26,24.24,40,48,68.92,57.18,23,7.32,46.62,15,65.1,30.52,13.05,11,23.91,26,40.32,30.57,13.07,3.64,27-.22,40.53,1.12,16,1.58,30.47,10.35,46.2,13.83s35.86-1.06,40.84-16.39c2.84-8.76-.32-18.51-5.65-26s-12.64-13.33-19.34-19.65c-19.35-18.24-34.58-42.69-35.19-69.28-.5-21.55-2.36-43.3-9.11-63.77s-18.8-39.71-36.51-52c-11.94-8.29-25.91-13.12-38.59-20.22s-24.73-17.51-28.24-31.61c-1.82-7.32-2.17-14.93-2.54-22.46C930.05,1007.54,932,1004.2,920.54,1001.11Z"/><path class="cls-59" d="M915.46,689.24c-24.88,3.08-39.65,5.8-45.26,26a9.33,9.33,0,0,1-5.21,6.06c-24.52,10.61-54,1.68-79,11.27-27.93,10.74-43.16,46.45-31.55,74a80.16,80.16,0,0,1,22.39,57,11.86,11.86,0,0,1-5.33,9.74,355.76,355.76,0,0,0-118.07,127.74,230.21,230.21,0,0,0-11.33,23.6c-11.21,27.72,1.05,61.47,28.75,72.74,24.27,9.86,52.22,4.42,75.8-6.82,6.4-3.06,12.66-6.56,17.94-11.3,17.45-15.63,21.67-42,38.55-58.29,12.59-12.12,30.57-16.89,48-18.64,5.1-.51,10.23-.8,15.37-1,22-1,40.6-17.08,44.13-38.82q1.19-7.37,2.15-14.76c.5-3.89,1-7.93-.24-11.68-1.12-3.54-3.59-6.46-5.85-9.41-12.28-16.08-19.59-35.9,18.73-102.26,7.65-10.94,3.55-25.86-.75-38.51s-8.22-27.67-.33-38.44c3.74-5.11,9.58-8.27,13.77-13,6.23-7.06,8-16.46,8.15-26.1a19.92,19.92,0,0,0-21.21-20.19C922.11,688.35,918.89,688.73,915.46,689.24Z"/><circle class="cls-58" cx="826.2" cy="1121.76" r="9.69"/><circle class="cls-58" cx="917.25" cy="1141.14" r="9.69"/><circle class="cls-58" cx="893.49" cy="1193.97" r="9.69"/><circle class="cls-58" cx="979.83" cy="1121.76" r="9.69"/><circle class="cls-58" cx="973.32" cy="1270.88" r="9.69"/><circle class="cls-58" cx="883.8" cy="1165.24" r="9.69"/><circle class="cls-58" cx="926.94" cy="1280.57" r="9.69"/><path class="cls-59" d="M1178.26,832.57c-5.47-1-11-1.62-16.79-2.21l-45.75-14.64c-25.44-14.41-59.08-10.06-80.86,8.84-30,26-33.45,71.29-55.59,104.26-7.49,11.14-17,20.74-25.26,31.34l-52,67.07a74.29,74.29,0,0,0-8,11.88c-5.27,10.41-5.4,22.58-5.42,34.25,0,21.56-.06,43.17,2.31,64.58a45.87,45.87,0,0,0,19.91,32.55l40.16,27.56a115.48,115.48,0,0,0,24.81,12.38c7.29,2.36,15,4,22.69,3.54,9.31-.58,17.92-5,25.88-9.89,29.17-17.78,54.06-42.14,84.12-58.36,7-3.78,14.37-7.17,20.31-12.48,6.72-6,11.19-14.08,15.53-22l11.76-21.43a34.08,34.08,0,0,0,3.59-21.79c-7.43-46.64,14.47-91.13,41.05-129C1207,930,1213.8,921,1218,910.69a69.91,69.91,0,0,0,4.24-14.73c.42-2.35.71-4.72.9-7.1C1225.35,861.36,1205.45,837.26,1178.26,832.57Z"/></svg>