<svg id="Layer_1" data-name="Layer 1" xmlns="http://www.w3.org/2000/svg" viewBox="0 0 2345.87 1337.26"><defs><style>.cls-1{font-size:49.79px;}.cls-1,.cls-9{fill:#010101;font-family:SourceSansPro-Regular, SourceSansPro Regular;}.cls-2{letter-spacing:0em;}.cls-3{letter-spacing:0em;}.cls-4{letter-spacing:0em;}.cls-5{letter-spacing:-0.01em;}.cls-6{letter-spacing:0.02em;}.cls-7{fill:#fff;stroke-width:0.25px;}.cls-13,.cls-28,.cls-7{stroke:#fff;}.cls-13,.cls-20,.cls-21,.cls-27,.cls-28,.cls-7,.cls-8{stroke-miterlimit:10;}.cls-20,.cls-8{fill:#b7cfda;stroke:#b7cfda;}.cls-9{font-size:74.69px;}.cls-10{letter-spacing:-0.01em;}.cls-11{letter-spacing:0em;}.cls-12{letter-spacing:-0.01em;}.cls-13{fill:#441f52;stroke-width:2px;opacity:0.7;}.cls-14{letter-spacing:-0.01em;}.cls-15{letter-spacing:-0.01em;}.cls-16{letter-spacing:0em;}.cls-17{letter-spacing:-0.01em;}.cls-18{letter-spacing:0em;}.cls-19{letter-spacing:-0.01em;}.cls-20,.cls-28{stroke-width:3px;}.cls-21{fill:#f9b876;stroke:#e83f2e;}.cls-22{letter-spacing:0.01em;}.cls-23{letter-spacing:0em;}.cls-24{letter-spacing:0.02em;}.cls-25{letter-spacing:0em;}.cls-26{letter-spacing:0em;}.cls-27,.cls-28{fill:none;}.cls-27{stroke:#010101;}.cls-28{stroke-dasharray:8 5 8 5 8 5;}</style></defs><text class="cls-1" transform="translate(1930.68 1245.63)"><tspan class="cls-2">G</tspan><tspan x="32.41" y="0">ene</tspan><tspan class="cls-3" x="109.94" y="0">r</tspan><tspan class="cls-4" x="125.98" y="0">a</tspan><tspan class="cls-5" x="149.78" y="0">t</tspan><tspan x="165.96" y="0">ed</tspan><tspan class="cls-6" x="0" y="59.75">k</tspan><tspan x="24.2" y="59.75">inem</tspan><tspan class="cls-4" x="129.96" y="59.75">a</tspan><tspan x="153.76" y="59.75">tic d</tspan><tspan class="cls-4" x="242.84" y="59.75">a</tspan><tspan x="266.64" y="59.75">ta</tspan></text><rect class="cls-7" x="445.98" y="669.45" width="13.79" height="7.88"/><polyline class="cls-7" points="459.66 673.48 459.77 673.48 459.88 673.48"/><path class="cls-7" d="M459.92,681.55l13.44-8s0,0,0,0H459.9s0,0,0,0v8S459.9,681.56,459.92,681.55Z"/><path class="cls-7" d="M459.92,665.2l13.45,8a0,0,0,0,1,0,0H459.9l0,0v-8S459.9,665.19,459.92,665.2Z"/><rect class="cls-7" x="777.95" y="669.45" width="13.79" height="7.88"/><polyline class="cls-7" points="791.62 673.48 791.73 673.48 791.84 673.48"/><path class="cls-7" d="M791.89,681.55l13.43-8a0,0,0,0,0,0,0H791.87a0,0,0,0,0,0,0v8S791.87,681.56,791.89,681.55Z"/><path class="cls-7" d="M791.88,665.2l13.46,8s0,0,0,0H791.87l0,0v-8S791.87,665.19,791.88,665.2Z"/><rect class="cls-7" x="1578.17" y="669.45" width="13.79" height="7.88"/><polyline class="cls-7" points="1591.85 673.48 1591.96 673.48 1592.07 673.48"/><path class="cls-7" d="M1592.11,681.55l13.44-8s0,0,0,0H1592.1a0,0,0,0,0,0,0v8S1592.09,681.56,1592.11,681.55Z"/><path class="cls-7" d="M1592.11,665.2l13.45,8s0,0,0,0H1592.1s0,0,0,0v-8S1592.09,665.19,1592.11,665.2Z"/><rect class="cls-7" x="1893.05" y="669.45" width="13.79" height="7.88"/><polyline class="cls-7" points="1906.73 673.48 1906.84 673.48 1906.95 673.48"/><path class="cls-7" d="M1907,681.55l13.44-8s0,0,0,0H1907s0,0,0,0v8S1907,681.56,1907,681.55Z"/><path class="cls-7" d="M1907,665.2l13.45,8a0,0,0,0,1,0,0H1907s0,0,0,0v-8S1907,665.19,1907,665.2Z"/><polygon class="cls-8" points="507.29 100.41 507.29 1158.51 743.61 1024.66 743.61 234.25 507.29 100.41"/><text class="cls-9" transform="translate(504.17 62.52)">En<tspan class="cls-10" x="78.2" y="0">c</tspan><tspan x="111.21" y="0">oder</tspan></text><polygon class="cls-8" points="1867.47 106.63 1867.47 1164.73 1631.15 1030.89 1631.15 240.48 1867.47 106.63"/><text class="cls-9" transform="translate(1605.58 62.52)"><tspan class="cls-11">D</tspan><tspan x="50.04" y="0">e</tspan><tspan class="cls-12" x="87.46" y="0">c</tspan><tspan x="120.47" y="0">oder</tspan></text><rect class="cls-8" x="832.6" y="234.55" width="722" height="790.46"/><rect class="cls-13" x="1193.6" y="235.14" width="130.71" height="789.87"/><text class="cls-1" transform="translate(1172.65 208.96)"><tspan class="cls-14">r</tspan><tspan x="15.78" y="0">em</tspan><tspan class="cls-15" x="82.26" y="0">o</tspan><tspan class="cls-4" x="109.25" y="0">v</tspan><tspan x="133" y="0">al</tspan></text><text class="cls-9" transform="translate(933.77 1172.07)">L<tspan class="cls-16" x="35.25" y="0">a</tspan><tspan class="cls-12" x="70.95" y="0">t</tspan><tspan x="95.23" y="0">e</tspan><tspan class="cls-16" x="132.65" y="0">n</tspan><tspan x="173.8" y="0">t </tspan><tspan class="cls-17" x="214.36" y="0">f</tspan><tspan x="235.19" y="0">e</tspan><tspan class="cls-18" x="272.61" y="0">a</tspan><tspan x="308.31" y="0">tu</tspan><tspan class="cls-19" x="374.19" y="0">r</tspan><tspan x="397.87" y="0">es</tspan></text><path class="cls-20" d="M224.84,100.41v1058.1H415.19V100.41ZM403.63,1149H236.4V109.93H403.63Z"/><path class="cls-21" d="M401.68,112V1147H367.94q-13.43-27.06-26.79-54.18c-4.88-9.74-10.2-20.09-19.46-25.42-12.77-7.32-30.67-3.6-37.31-22.14a19.44,19.44,0,0,1,2.32-17.17c9.7-14.2,23.78-9.11,36.55-10.48a39.29,39.29,0,0,0,26.29-15.13,6.76,6.76,0,0,0-.81-8.92l-.38-.25a6.79,6.79,0,0,1-.37-9.43l4.75-5.14a4,4,0,0,0-.25-5.4c-.81-.74-1.94-1.05-2.81-1.73-3.76-3-.19-9.12,3.37-12.4l19.22-17.73a6.59,6.59,0,0,0-3.13-11.29c-12.83-2.48-26.91-.12-40.18-1.36a72.65,72.65,0,0,1-42.5-19.28,17.39,17.39,0,0,1-5.32-10.11c-2.63-17.11,10.51-26.6,23.6-29.88,9.45-2.36,19.27-2.17,28.85-4a72.49,72.49,0,0,0,34.36-17.05c3.69-3.23,2.82-9.43-1.75-11.16-6.82-2.67-13.71-5.21-20.66-7.57a6.59,6.59,0,0,1-1.5-11.65l12-8a7.82,7.82,0,0,0,2.63-2.48c1.18-2.36-.32-6.82-2.88-6.51-2.19.31-10.83.43-7.58-3l9.52-6.26a4.13,4.13,0,0,0-.5-6.57,57,57,0,0,0-25.79-10.79c-17.4-4,6.82-8.49,9.07-13.51,1.51-3.35-.68-7.5-3.75-9.37s-6.76-2.1-10.33-2.41a167.49,167.49,0,0,1-35.67-6.95,6.67,6.67,0,0,1-1.82-11.65A138.72,138.72,0,0,1,317.06,715c5.94-2.42,5.25-11.22-1-12.4a335,335,0,0,1-40.24-10.35c-20.59-5.52,18.9-17.86,31.73-19s26.23.25,38.12-4.89a39.45,39.45,0,0,0,21.41-23.94A12.91,12.91,0,0,0,360.31,629q-3.57-1.77-7.33-3.35c-5.38-2.36-5.13-10.36.5-12.22l2.88-.93c8.64-2.85,17.84-6.07,23.35-13.57,3.82-5.15,4.57-13,1.88-18.48a6.89,6.89,0,0,1,2.5-8.87,21.55,21.55,0,0,0,2.5-1.79c6.83-3.85-5.07-7.44-4.32-12,1.26-7.75,5.57-15.56-5.75-23.07a23,23,0,0,0-9.39-3.34c-16.15-2.36-32.24-7.57-45.63-17.24-15.77-11.41-27-28.4-36-46.07a266.67,266.67,0,0,1-23.85-70.36,13,13,0,0,1,4.26-12.34c19.47-16.25,44.5-9.18,67.41-12.59,8.64-1.3,17.65-4.46,20.22-15.56a7.07,7.07,0,0,0-1.88-6.26c-4.38-4.78.37-12.28,5.94-14.7,5.32-2.29,11.52-2.41,16.28-5.76,9.14-6.45,8.2-20.59,12.58-31.13,2.75-6.44,7.82-12.52,6.88-19.53-.56-4-3.06-7.37-5.44-10.54a377.93,377.93,0,0,1-36.18-59.89,6.83,6.83,0,0,1,1.57-8c2.75-2.35,5.5-4.58,8.32-6.75,4.44-3.41,3-10.54-2.38-11.66l-17.71-3.66c-4.57-1-9.27-2-13.08-4.83s-6.7-7.63-5.76-12.4c1.13-6,7.13-9.18,11.58-13.21C344,140,346.35,123.71,340.15,112Z"/><text class="cls-9" transform="translate(233.25 62.52)"><tspan class="cls-22">I</tspan><tspan x="18.6" y="0">nput</tspan></text><text class="cls-1" transform="translate(217.01 1245.63)"><tspan class="cls-23">R</tspan><tspan x="26.99" y="0">e</tspan><tspan class="cls-5" x="51.93" y="0">c</tspan><tspan x="73.94" y="0">o</tspan><tspan class="cls-14" x="101.28" y="0">r</tspan><tspan x="117.06" y="0">ded</tspan><tspan class="cls-24" x="-108.95" y="59.75">k</tspan><tspan x="-84.75" y="59.75">inem</tspan><tspan class="cls-25" x="21.01" y="59.75">a</tspan><tspan x="44.81" y="59.75">tic d</tspan><tspan class="cls-4" x="133.89" y="59.75">a</tspan><tspan x="157.69" y="59.75">ta</tspan></text><text class="cls-9" transform="translate(1914.28 62.52)"><tspan class="cls-26">O</tspan><tspan x="51.68" y="0">utput</tspan></text><path class="cls-27" d="M2073.87,942.84a7.31,7.31,0,0,0-2.12-.81"/><path class="cls-27" d="M2075.17,1169c-1.05-2.18-2.11-4.36-3.23-6.54"/><path class="cls-27" d="M2044.18,123.44a25.74,25.74,0,0,0-3.61-6.54"/><path class="cls-27" d="M2074.68,436.2a2.46,2.46,0,0,0-.56-.56"/><path class="cls-20" d="M1939.43,113.91V1172h190.39V113.91Zm178.82,1048.58H1951v-1039h167.25Z"/><path class="cls-21" d="M2116.25,125.52v1034.9h-46.31l-28-56.91c-4.79-9.79-10.15-20.15-19.36-25.42-12.69-7.31-30.5-3.65-37-22.19a19.2,19.2,0,0,1,2.24-17.11c9.65-14.2,23.65-9.11,36.41-10.54a38.72,38.72,0,0,0,26.08-15.06,6.73,6.73,0,0,0-.81-8.93l-.37-.31a6.74,6.74,0,0,1-.38-9.36l4.73-5.15a3.92,3.92,0,0,0-.24-5.39c-.81-.74-1.93-1-2.81-1.8-3.73-3-.18-9,3.37-12.33l19.1-17.79a6.56,6.56,0,0,0-.74-10.23c-.07-.07-.19-.13-.25-.25-8-6-25.58-33.35-25.58-57.65,0-12.71,12.57-16.12,22.28-24.74,3.67-3.28,2.8-9.48-1.68-11.22-6.85-2.66-13.69-5.14-20.6-7.5a6.63,6.63,0,0,1-1.5-11.65l11.89-8.06a7.34,7.34,0,0,0,2.62-2.48c1.18-2.36-.32-6.82-2.87-6.45-2.18.31-10.77.43-7.53-3l9.46-6.32a4.16,4.16,0,0,0-.43-6.57,56.13,56.13,0,0,0-25.71-10.72c-17.3-4.1,6.78-8.56,9-13.58,1.5-3.35-.62-7.44-3.67-9.36s-6.78-2.11-10.33-2.36a169.77,169.77,0,0,1-35.48-7,6.65,6.65,0,0,1-1.8-11.6,138,138,0,0,1,28-15.68c5.91-2.48,5.23-11.28-1-12.46a316.8,316.8,0,0,1-40-10.35c-20.54-5.52,18.74-17.79,31.5-19s26.14.25,38-4.9a39.61,39.61,0,0,0,21.23-23.93,13,13,0,0,0-6.72-15.5c-2.37-1.17-4.8-2.29-7.22-3.34-5.42-2.3-5.17-10.36.43-12.15l2.86-.93c8.59-2.86,17.74-6.08,23.22-13.58a19.26,19.26,0,0,0,1.93-18.54,6.76,6.76,0,0,1,2.49-8.8c.81-.56,1.62-1.18,2.43-1.8,6.78-3.84-5-7.5-4.3-12,1.25-7.81,5.54-15.62-5.72-23.06-2.8-1.86-6.41-1.8-9.34-3.35-43-22.81,15.81-93.73,4.92-105-59.94-73.64,2.11-27.83-18.43-69.12-1.05-2.1-.31-4.58-1.86-6.26-4.36-4.83.37-12.27,5.91-14.69,5.29-2.36,11.45-2.42,16.18-5.83,9.09-6.44,8.16-20.52,12.57-31.06,2.68-6.5,7.72-12.58,6.79-19.52-.56-4-3.05-7.38-5.42-10.6a378.29,378.29,0,0,1-36-59.89,6.7,6.7,0,0,1,1.62-7.93c2.67-2.36,5.41-4.59,8.27-6.82,4.36-3.35,2.93-10.54-2.42-11.66L2042.3,190c-4.54-.93-9.21-2.05-13-4.78s-6.59-7.62-5.72-12.4c1.12-5.95,7.09-9.23,11.51-13.2,9-8.24,11.64-22.75,7.1-34.1Z"/><rect class="cls-13" x="1954.49" y="838.96" width="163.76" height="108.92" transform="translate(4072.74 1786.84) rotate(180)"/><rect class="cls-13" x="1954.49" y="346.74" width="163.76" height="186.77" transform="translate(4072.74 880.25) rotate(180)"/><line class="cls-28" x1="1937.65" y1="346.74" x2="239.6" y2="346.74"/><line class="cls-28" x1="1937.65" y1="533.51" x2="239.6" y2="533.51"/><line class="cls-28" x1="1938.05" y1="838.96" x2="239.6" y2="838.96"/><line class="cls-28" x1="1938.05" y1="947.88" x2="239.6" y2="947.88"/></svg>