<?xml version="1.0" encoding="utf-8"?>
<!-- Generator: Adobe Adobe Illustrator 29.2.0, SVG Export Plug-In . SVG Version: 6.00 Build 0)  -->
<svg version="1.1" id="Layer_1" xmlns="http://www.w3.org/2000/svg" xmlns:xlink="http://www.w3.org/1999/xlink" x="0px" y="0px"
	 width="400px" height="300px" viewBox="0 0 400 300" style="enable-background:new 0 0 400 300;" xml:space="preserve">
<style type="text/css">
	.st0{fill:#1A1332;stroke:#000000;stroke-miterlimit:10;}
	.st1{fill:#4F6AB3;stroke:#FFFFFF;stroke-width:0.25;stroke-miterlimit:10;}
	.st2{fill:none;stroke:#F3A6D5;stroke-miterlimit:10;}
	.st3{fill:#FFFFFF;}
	.st4{font-family:'SourceSansPro-Regular';}
	.st5{font-size:10.9304px;}
	.st6{font-family:'SourceSansPro-It';}
	.st7{font-size:4.1744px;}
	.st8{opacity:0.4;fill:#AE00FF;enable-background:new    ;}
	.st9{fill:none;stroke:#FFFFFF;stroke-miterlimit:10;}
	.st10{opacity:0.4;fill:#FF00EA;enable-background:new    ;}
	.st11{opacity:0.4;fill:#00FFD4;enable-background:new    ;}
	.st12{opacity:0.4;fill:#E3F700;enable-background:new    ;}
	.st13{opacity:0.4;fill:#D500FF;enable-background:new    ;}
	.st14{opacity:0.4;fill:#00B7FF;enable-background:new    ;}
	.st15{opacity:0.4;fill:#00E645;enable-background:new    ;}
	.st16{font-size:7.7044px;}
	.st17{font-size:7.1423px;}
	.st18{opacity:0.3;fill:none;stroke:#F7A6D7;stroke-miterlimit:10;enable-background:new    ;}
	.st19{opacity:0.3;fill:none;stroke:#F3A6D5;stroke-miterlimit:10;stroke-dasharray:5,4,5,4,5,4;enable-background:new    ;}
	.st20{opacity:0.3;fill:none;stroke:#F1A6D4;stroke-miterlimit:10;enable-background:new    ;}
	.st21{opacity:0.3;fill:none;stroke:#F5A6D6;stroke-miterlimit:10;stroke-dasharray:5,4,5,4,5,4;enable-background:new    ;}
	.st22{fill:none;stroke:#F5A6D6;stroke-miterlimit:10;}
	.st23{font-size:4.2245px;}
	.st24{opacity:0.2;fill:#FFFFFF;stroke:#FFFFFF;stroke-miterlimit:10;enable-background:new    ;}
</style>
<rect y="-0.24" class="st0" width="399.87" height="300.85"/>
<circle class="st1" cx="167.24" cy="202.62" r="1.51"/>
<circle class="st1" cx="144.71" cy="199.7" r="1.51"/>
<line class="st2" x1="124.22" y1="117.23" x2="124.22" y2="184.83"/>
<text transform="matrix(1 0 0 1 272.0352 61.2191)" class="st3 st4 st5">Unsupe</text>
<text transform="matrix(1 0 0 1 307.2363 61.2191)" class="st3 st4 st5">r</text>
<text transform="matrix(1 0 0 1 311.083 61.2191)" class="st3 st4 st5">vised lea</text>
<text transform="matrix(1 0 0 1 350.5176 61.2191)" class="st3 st4 st5">r</text>
<text transform="matrix(1 0 0 1 354.1406 61.2191)" class="st3 st4 st5">ning</text>
<text transform="matrix(1 0 0 1 324.3311 74.3451)" class="st3 st4 st5">t</text>
<text transform="matrix(1 0 0 1 327.8877 74.3451)" class="st3 st4 st5">echniques</text>
<text transform="matrix(1 0 0 1 253.4795 209.5409)" class="st3 st6 st7">S</text>
<text transform="matrix(1 0 0 1 255.5576 209.5409)" class="st3 st6 st7">e</text>
<text transform="matrix(1 0 0 1 257.6465 209.5409)" class="st3 st6 st7">r</text>
<text transform="matrix(1 0 0 1 258.9697 209.5409)" class="st3 st6 st7">ena, R. S., </text>
<text transform="matrix(1 0 0 1 275.7725 209.5409)" class="st3 st6 st7">H</text>
<text transform="matrix(1 0 0 1 278.5342 209.5409)" class="st3 st6 st7">i</text>
<text transform="matrix(1 0 0 1 279.5088 209.5409)" class="st3 st6 st7">n</text>
<text transform="matrix(1 0 0 1 281.8057 209.5409)" class="st3 st6 st7">t</text>
<text transform="matrix(1 0 0 1 283.1572 209.5409)" class="st3 st6 st7">e</text>
<text transform="matrix(1 0 0 1 285.2471 209.5409)" class="st3 st6 st7">r</text>
<text transform="matrix(1 0 0 1 286.7158 209.5409)" class="st3 st6 st7">wimme</text>
<text transform="matrix(1 0 0 1 299.7979 209.5409)" class="st3 st6 st7">r</text>
<text transform="matrix(1 0 0 1 300.9355 209.5409)" class="st3 st6 st7">, </text>
<text transform="matrix(1 0 0 1 302.6855 209.5409)" class="st3 st6 st7">F</text>
<text transform="matrix(1 0 0 1 304.3115 209.5409)" class="st3 st6 st7">., &amp; Bu</text>
<text transform="matrix(1 0 0 1 314.8809 209.5409)" class="st3 st6 st7">r</text>
<text transform="matrix(1 0 0 1 316.2031 209.5409)" class="st3 st6 st7">g</text>
<text transform="matrix(1 0 0 1 318.5352 209.5409)" class="st3 st6 st7">k</text>
<text transform="matrix(1 0 0 1 320.5654 209.5409)" class="st3 st6 st7">a</text>
<text transform="matrix(1 0 0 1 322.5762 209.5409)" class="st3 st6 st7">r</text>
<text transform="matrix(1 0 0 1 324.0352 209.5409)" class="st3 st6 st7">t</text>
<text transform="matrix(1 0 0 1 325.4053 209.5409)" class="st3 st6 st7">, R.</text>
<text transform="matrix(1 0 0 1 330.2539 209.5409)" class="st3 st6 st7"> </text>
<text transform="matrix(1 0 0 1 330.9668 209.5409)" class="st3 st6 st7">T</text>
<text transform="matrix(1 0 0 1 333.0088 209.5409)" class="st3 st6 st7">he </text>
<text transform="matrix(1 0 0 1 338.293 209.5409)" class="st3 st6 st7">U</text>
<text transform="matrix(1 0 0 1 340.9629 209.5409)" class="st3 st6 st7">se of </text>
<text transform="matrix(1 0 0 1 349.9746 209.5409)" class="st3 st6 st7">A</text>
<text transform="matrix(1 0 0 1 352.5127 209.5409)" class="st3 st6 st7">r</text>
<text transform="matrix(1 0 0 1 353.9756 209.5409)" class="st3 st6 st7">tificial </text>
<text transform="matrix(1 0 0 1 365.2217 209.5409)" class="st3 st6 st7">I</text>
<text transform="matrix(1 0 0 1 366.2676 209.5409)" class="st3 st6 st7">n</text>
<text transform="matrix(1 0 0 1 368.5645 209.5409)" class="st3 st6 st7">t</text>
<text transform="matrix(1 0 0 1 369.9141 209.5409)" class="st3 st6 st7">elli</text>
<text transform="matrix(1 0 0 1 271.0947 214.5419)" class="st3 st6 st7">gen</text>
<text transform="matrix(1 0 0 1 277.8232 214.5419)" class="st3 st6 st7">c</text>
<text transform="matrix(1 0 0 1 279.668 214.5419)" class="st3 st6 st7">e and</text>
<text transform="matrix(1 0 0 1 289.3086 214.5419)" class="st3 st6 st7"> </text>
<text transform="matrix(1 0 0 1 290.043 214.5419)" class="st3 st6 st7">W</text>
<text transform="matrix(1 0 0 1 293.4307 214.5419)" class="st3 st6 st7">ea</text>
<text transform="matrix(1 0 0 1 297.5293 214.5419)" class="st3 st6 st7">r</text>
<text transform="matrix(1 0 0 1 298.8682 214.5419)" class="st3 st6 st7">able IM</text>
<text transform="matrix(1 0 0 1 311.5498 214.5419)" class="st3 st6 st7">U</text>
<text transform="matrix(1 0 0 1 314.2217 214.5419)" class="st3 st6 st7">s in </text>
<text transform="matrix(1 0 0 1 320.9287 214.5419)" class="st3 st6 st7">M</text>
<text transform="matrix(1 0 0 1 324.3018 214.5419)" class="st3 st6 st7">edicine: A </text>
<text transform="matrix(1 0 0 1 342.1387 214.5419)" class="st3 st6 st7">S</text>
<text transform="matrix(1 0 0 1 344.1621 214.5419)" class="st3 st6 st7">y</text>
<text transform="matrix(1 0 0 1 346.0986 214.5419)" class="st3 st6 st7">s</text>
<text transform="matrix(1 0 0 1 347.748 214.5419)" class="st3 st6 st7">t</text>
<text transform="matrix(1 0 0 1 349.1055 214.5419)" class="st3 st6 st7">em</text>
<text transform="matrix(1 0 0 1 354.665 214.5419)" class="st3 st6 st7">a</text>
<text transform="matrix(1 0 0 1 356.6553 214.5419)" class="st3 st6 st7">tic </text>
<text transform="matrix(1 0 0 1 361.7617 214.5419)" class="st3 st6 st7">R</text>
<text transform="matrix(1 0 0 1 364.0215 214.5419)" class="st3 st6 st7">evie</text>
<text transform="matrix(1 0 0 1 371.1758 214.5419)" class="st3 st6 st7">w</text>
<text transform="matrix(1 0 0 1 374.0811 214.5419)" class="st3 st6 st7">.</text>
<circle class="st8" cx="255.87" cy="173.03" r="25.89"/>
<circle class="st9" cx="255.87" cy="173.03" r="25.89"/>
<circle class="st10" cx="290.55" cy="167.55" r="16.21"/>
<circle class="st9" cx="290.55" cy="167.55" r="16.21"/>
<circle class="st11" cx="322" cy="166.06" r="18.91"/>
<circle class="st9" cx="322" cy="166.06" r="18.91"/>
<circle class="st12" cx="353.61" cy="166.61" r="19.47"/>
<circle class="st9" cx="353.61" cy="166.61" r="19.47"/>
<circle class="st13" cx="275.67" cy="143.5" r="16.75"/>
<circle class="st9" cx="275.67" cy="143.5" r="16.75"/>
<circle class="st14" cx="305.55" cy="148.35" r="19.2"/>
<circle class="st9" cx="305.55" cy="148.35" r="19.2"/>
<ellipse transform="matrix(0.1602 -0.9871 0.9871 0.1602 143.314 457.426)" class="st15" cx="340.48" cy="144.49" rx="23.06" ry="23.06"/>
<ellipse transform="matrix(0.1602 -0.9871 0.9871 0.1602 143.314 457.426)" class="st9" cx="340.48" cy="144.49" rx="23.06" ry="23.06"/>
<text transform="matrix(1 0 0 1 247.751 192.7343)" class="st3 st4 st16">SVM</text>
<text transform="matrix(1 0 0 1 286.3555 179.1293)" class="st3 st4 st16">RF</text>
<text transform="matrix(1 0 0 1 298.3096 139.0199)" class="st3 st4 st16">MLP</text>
<text transform="matrix(1 0 0 1 331.918 132.2206)" class="st3 st4 st16">LSTM</text>
<text transform="matrix(1 0 0 1 347.4678 181.4115)" class="st3 st4 st16">CNN</text>
<text transform="matrix(1 0 0 1 315.1855 181.2602)" class="st3 st4 st17">kNN</text>
<text transform="matrix(1 0 0 1 270.8389 136.1166)" class="st3 st4 st16">RL</text>
<text transform="matrix(1 0 0 1 25.1704 61.2191)" class="st3 st4 st5">C</text>
<text transform="matrix(1 0 0 1 31.395 61.2191)" class="st3 st4 st5">o</text>
<text transform="matrix(1 0 0 1 37.395 61.2191)" class="st3 st4 st5">n</text>
<text transform="matrix(1 0 0 1 43.4199 61.2191)" class="st3 st4 st5">tinuous </text>
<text transform="matrix(1 0 0 1 80.3657 61.2191)" class="st3 st4 st5">k</text>
<text transform="matrix(1 0 0 1 85.6792 61.2191)" class="st3 st4 st5">inem</text>
<text transform="matrix(1 0 0 1 108.9009 61.2191)" class="st3 st4 st5">a</text>
<text transform="matrix(1 0 0 1 114.1265 61.2191)" class="st3 st4 st5">tic</text>
<text transform="matrix(1 0 0 1 25.1704 74.3451)" class="st3 st4 st5">d</text>
<text transform="matrix(1 0 0 1 31.3394 74.3451)" class="st3 st4 st5">a</text>
<text transform="matrix(1 0 0 1 36.5649 74.3451)" class="st3 st4 st5">ta</text>
<line class="st18" x1="75.31" y1="80.94" x2="75.31" y2="148.55"/>
<line class="st19" x1="92.4" y1="92.93" x2="92.4" y2="160.54"/>
<line class="st19" x1="109.5" y1="105.46" x2="109.5" y2="173.07"/>
<line class="st18" x1="75.45" y1="148.55" x2="203.37" y2="148.55"/>
<line class="st19" x1="92.4" y1="160.54" x2="160.01" y2="160.54"/>
<line class="st19" x1="109.5" y1="173.07" x2="177.1" y2="173.07"/>
<line class="st2" x1="124.22" y1="184.41" x2="191.82" y2="184.41"/>
<line class="st20" x1="75.31" y1="148.55" x2="124.22" y2="184.41"/>
<line class="st18" x1="75.31" y1="148.55" x2="27.6" y2="178.25"/>
<line class="st21" x1="92.4" y1="160.79" x2="44.69" y2="190.5"/>
<line class="st21" x1="109.5" y1="173.12" x2="61.79" y2="202.82"/>
<line class="st22" x1="124.22" y1="184.41" x2="76.51" y2="214.11"/>
<text transform="matrix(1 0 0 1 190.9717 146.0902)" class="st3 st4 st23">F</text>
<text transform="matrix(1 0 0 1 192.9131 146.0902)" class="st3 st4 st23">r</text>
<text transform="matrix(1 0 0 1 194.252 146.0902)" class="st3 st4 st23">o</text>
<text transform="matrix(1 0 0 1 196.5674 146.0902)" class="st3 st4 st23">n</text>
<text transform="matrix(1 0 0 1 198.8955 146.0902)" class="st3 st4 st23">tal</text>
<text transform="matrix(1 0 0 1 71.1738 87.9076)" class="st3 st4 st23">L</text>
<text transform="matrix(1 0 0 1 71.1738 92.9687)" class="st3 st4 st23">o</text>
<text transform="matrix(1 0 0 1 71.1738 98.0297)" class="st3 st4 st23">n</text>
<text transform="matrix(1 0 0 1 71.1738 103.0902)" class="st3 st4 st23">g</text>
<text transform="matrix(1 0 0 1 71.1738 108.1523)" class="st3 st4 st23">i</text>
<text transform="matrix(1 0 0 1 71.1738 113.2123)" class="st3 st4 st23">t</text>
<text transform="matrix(1 0 0 1 71.1738 118.2743)" class="st3 st4 st23">u</text>
<text transform="matrix(1 0 0 1 71.1738 123.3354)" class="st3 st4 st23">d</text>
<text transform="matrix(1 0 0 1 71.1738 128.3944)" class="st3 st4 st23">i</text>
<text transform="matrix(1 0 0 1 71.1738 133.456)" class="st3 st4 st23">n</text>
<text transform="matrix(1 0 0 1 71.1738 138.515)" class="st3 st4 st23">a</text>
<text transform="matrix(1 0 0 1 71.1738 143.5815)" class="st3 st4 st23">l</text>
<text transform="matrix(0.848 -0.5299 0.5299 0.848 26.7673 176.6053)" class="st3 st4 st23">S</text>
<text transform="matrix(0.848 -0.5299 0.5299 0.848 28.5404 175.4973)" class="st3 st4 st23">a</text>
<text transform="matrix(0.848 -0.5299 0.5299 0.848 30.2649 174.4197)" class="st3 st4 st23">g</text>
<text transform="matrix(0.848 -0.5299 0.5299 0.848 32.2428 173.1838)" class="st3 st4 st23">ittal</text>
<text transform="matrix(0.809 0.5878 -0.5878 0.809 180.967 224.6907)" class="st3 st4 st23">T</text>
<text transform="matrix(0.809 0.5878 -0.5878 0.809 182.6198 225.8916)" class="st3 st4 st23">ime</text>
<line class="st2" x1="124.22" y1="184.71" x2="186.88" y2="231.35"/>
<circle class="st1" cx="143.34" cy="152.93" r="1.51"/>
<circle class="st1" cx="138.12" cy="165.73" r="1.51"/>
<circle class="st1" cx="127.6" cy="160.54" r="1.51"/>
<circle class="st1" cx="128.25" cy="175.75" r="1.51"/>
<circle class="st1" cx="138.12" cy="171.76" r="1.51"/>
<circle class="st1" cx="111.15" cy="202.64" r="1.51"/>
<circle class="st1" cx="134.13" cy="192.09" r="1.51"/>
<circle class="st1" cx="129.76" cy="202.64" r="1.51"/>
<circle class="st1" cx="157.98" cy="225.55" r="1.51"/>
<circle class="st1" cx="167.38" cy="173.27" r="1.51"/>
<circle class="st1" cx="157.98" cy="187.72" r="1.51"/>
<circle class="st1" cx="168.89" cy="212.76" r="1.51"/>
<circle class="st1" cx="156.47" cy="204.15" r="1.51"/>
<circle class="st1" cx="170.41" cy="198.17" r="1.51"/>
<circle class="st1" cx="163.22" cy="189.23" r="1.51"/>
<circle class="st1" cx="134.13" cy="204.15" r="1.51"/>
<circle class="st1" cx="134.13" cy="177.26" r="1.51"/>
<circle class="st1" cx="180.86" cy="185.06" r="1.51"/>
<circle class="st1" cx="185.14" cy="183.54" r="1.51"/>
<circle class="st1" cx="174.57" cy="207.73" r="1.51"/>
<path class="st24" d="M143.85,195.43c-2.47-0.41-4.72-1.68-6.36-3.58c-0.83-0.98-1.52-2.13-2.62-2.8c-1.69-1.03-4.04-0.54-5.43,0.87
	c-1.39,1.41-1.87,3.55-1.56,5.5c0.16,0.94,0.47,1.89,0.31,2.84c-0.24,1.41-1.46,2.44-1.98,3.77c-1,2.54-5.37,0.77-7.99-0.44
	c-1.21-0.56-4.42-2.19-6.86-2.19c-2.55,0-3.75,4.59-4.22,7.1c-0.36,1.94,0.44,3.18,0.86,3.87c1.43,2.34,15.95,14.33,17.6,16.52
	c2.85,3.79,6.25,7.5,10.77,8.93c3.59,1.14,7.28,2.34,10.17,4.77c2.04,1.72,3.73,4.06,6.3,4.78c2.04,0.57,4.22-0.03,6.33,0.17
	c2.5,0.25,4.76,1.62,7.22,2.16c2.46,0.54,5.6-0.17,6.38-2.56c0.44-1.37-0.05-2.89-0.88-4.06c-0.83-1.17-1.97-2.08-3.02-3.07
	c-3.02-2.85-5.4-6.67-5.5-10.82c-0.08-3.37-0.37-6.76-1.42-9.96s-2.94-6.2-5.7-8.12c-1.87-1.29-4.05-2.05-6.03-3.16
	s-3.86-2.74-4.41-4.94c-0.28-1.14-0.34-2.33-0.4-3.51C145.34,196.43,145.64,195.91,143.85,195.43z"/>
<path class="st24" d="M143.06,146.72c-3.89,0.48-6.19,0.91-7.07,4.06c-0.12,0.42-0.41,0.77-0.81,0.95
	c-3.83,1.66-8.43,0.26-12.34,1.76c-4.36,1.68-6.74,7.26-4.93,11.56c2.3,2.39,3.56,5.59,3.5,8.9c-0.01,0.61-0.32,1.18-0.83,1.52
	c-7.7,5.02-14.04,11.88-18.44,19.95c-0.66,1.19-1.25,2.42-1.77,3.69c-1.75,4.33,0.16,9.6,4.49,11.36c3.79,1.54,8.16,0.69,11.84-1.07
	c1-0.48,1.98-1.02,2.8-1.77c2.73-2.44,3.38-6.56,6.02-9.1c1.97-1.89,4.78-2.64,7.5-2.91c0.8-0.08,1.6-0.12,2.4-0.16
	c3.44-0.16,6.34-2.67,6.89-6.06c0.12-0.77,0.24-1.54,0.34-2.31c0.08-0.61,0.16-1.24-0.04-1.82c-0.17-0.55-0.56-1.01-0.91-1.47
	c-1.92-2.51-3.06-5.61,2.93-15.97c1.19-1.71,0.55-4.04-0.12-6.02c-0.67-1.98-1.28-4.32-0.05-6c0.58-0.8,1.5-1.29,2.15-2.03
	c0.97-1.1,1.25-2.57,1.27-4.08c0.03-1.72-1.34-3.13-3.06-3.16c-0.08,0-0.17,0-0.25,0.01C144.1,146.58,143.6,146.64,143.06,146.72z"
	/>
<circle class="st1" cx="129.12" cy="214.28" r="1.51"/>
<circle class="st1" cx="143.34" cy="217.3" r="1.51"/>
<circle class="st1" cx="139.63" cy="225.55" r="1.51"/>
<circle class="st1" cx="153.12" cy="214.28" r="1.51"/>
<circle class="st1" cx="152.1" cy="237.57" r="1.51"/>
<circle class="st1" cx="138.12" cy="221.07" r="1.51"/>
<path class="st24" d="M184.11,169.1c-0.85-0.16-1.72-0.25-2.62-0.35l-7.15-2.29c-3.97-2.25-9.23-1.57-12.63,1.38
	c-4.69,4.06-5.22,11.14-8.68,16.29c-1.17,1.74-2.66,3.24-3.95,4.9l-8.12,10.48c-0.48,0.58-0.89,1.2-1.25,1.86
	c-0.82,1.63-0.84,3.53-0.85,5.35c0,3.37-0.01,6.74,0.36,10.09c0.25,2.07,1.38,3.92,3.11,5.08l6.27,4.3c1.21,0.8,2.51,1.45,3.88,1.93
	c1.14,0.37,2.34,0.62,3.54,0.55c1.45-0.09,2.8-0.78,4.04-1.54c4.56-2.78,8.44-6.58,13.14-9.12c1.09-0.59,2.24-1.12,3.17-1.95
	c1.05-0.94,1.75-2.2,2.43-3.44l1.84-3.35c0.56-1.04,0.76-2.24,0.56-3.4c-1.16-7.29,2.26-14.23,6.41-20.15
	c0.98-1.41,2.04-2.81,2.7-4.43c0.3-0.74,0.53-1.51,0.66-2.3c0.07-0.37,0.11-0.74,0.14-1.11C191.47,173.6,188.36,169.84,184.11,169.1
	z"/>
</svg>
