<?xml version="1.0" encoding="utf-8"?>
<!-- Generator: Adobe Adobe Illustrator 29.2.0, SVG Export Plug-In . SVG Version: 6.00 Build 0)  -->
<svg version="1.1" id="Layer_1" xmlns="http://www.w3.org/2000/svg" xmlns:xlink="http://www.w3.org/1999/xlink" x="0px" y="0px"
	 width="401px" height="301px" viewBox="0 0 401 301" style="enable-background:new 0 0 401 301;" xml:space="preserve">
<style type="text/css">
	.st0{fill:#1A1332;stroke:#000000;stroke-miterlimit:10;}
	.st1{fill:#FFFFFF;}
	.st2{font-family:'SourceSansPro-Regular';}
	.st3{font-size:8px;}
	.st4{fill:#FFFFFF;stroke:#FFFFFF;stroke-width:0.25;stroke-miterlimit:10;}
	.st5{fill:#B7CFDA;stroke:#B7CFDA;stroke-miterlimit:10;}
	.st6{font-size:12px;}
	.st7{opacity:0.7;fill:#431F52;stroke:#FFFFFF;stroke-width:0.4;stroke-miterlimit:10;enable-background:new    ;}
	.st8{fill:#F9B875;stroke:#FF3721;stroke-width:0.25;stroke-miterlimit:10;}
	.st9{fill:none;stroke:#000000;stroke-miterlimit:10;}
	.st10{fill:none;stroke:#FFFFFF;stroke-width:0.4;stroke-miterlimit:10;stroke-dasharray:8,5,8,5,8,5;}
</style>
<rect x="0.5" y="0.5" class="st0" width="400" height="300"/>
<g>
	<text transform="matrix(1 0 0 1 315.3466 244.1199)" class="st1 st2 st3">G</text>
	<text transform="matrix(1 0 0 1 320.5566 244.1199)" class="st1 st2 st3">ene</text>
	<text transform="matrix(1 0 0 1 333.0066 244.1199)" class="st1 st2 st3">r</text>
	<text transform="matrix(1 0 0 1 335.5866 244.1199)" class="st1 st2 st3">a</text>
	<text transform="matrix(1 0 0 1 339.4066 244.1199)" class="st1 st2 st3">t</text>
	<text transform="matrix(1 0 0 1 342.0066 244.1199)" class="st1 st2 st3">ed</text>
	<text transform="matrix(1 0 0 1 315.3466 253.7199)" class="st1 st2 st3">k</text>
	<text transform="matrix(1 0 0 1 319.2366 253.7199)" class="st1 st2 st3">inem</text>
	<text transform="matrix(1 0 0 1 336.2266 253.7199)" class="st1 st2 st3">a</text>
	<text transform="matrix(1 0 0 1 340.0466 253.7199)" class="st1 st2 st3">tic d</text>
	<text transform="matrix(1 0 0 1 354.3666 253.7199)" class="st1 st2 st3">a</text>
	<text transform="matrix(1 0 0 1 358.1866 253.7199)" class="st1 st2 st3">ta</text>
	<rect x="76.8" y="151.5" class="st4" width="2.2" height="1.3"/>
	<polyline class="st4" points="79,152.2 79,152.2 79,152.2 	"/>
	<path class="st4" d="M79,153.5l2.2-1.3H79L79,153.5L79,153.5z"/>
	<path class="st4" d="M79,150.9l2.2,1.3H79L79,150.9L79,150.9z"/>
	<rect x="130.1" y="151.5" class="st4" width="2.2" height="1.3"/>
	<polyline class="st4" points="132.3,152.2 132.4,152.2 132.4,152.2 	"/>
	<path class="st4" d="M132.4,153.5l2.2-1.3l0,0h-2.2V153.5L132.4,153.5z"/>
	<path class="st4" d="M132.4,150.9l2.2,1.3h-2.2V150.9z"/>
	<rect x="258.7" y="151.5" class="st4" width="2.2" height="1.3"/>
	<polyline class="st4" points="260.9,152.2 260.9,152.2 260.9,152.2 	"/>
	<path class="st4" d="M260.9,153.5l2.2-1.3l0,0h-2.2V153.5L260.9,153.5z"/>
	<path class="st4" d="M260.9,150.9l2.2,1.3h-2.2V150.9z"/>
	<rect x="309.3" y="151.5" class="st4" width="2.2" height="1.3"/>
	<polyline class="st4" points="311.5,152.2 311.5,152.2 311.5,152.2 	"/>
	<path class="st4" d="M311.5,153.5l2.2-1.3h-2.2V153.5L311.5,153.5z"/>
	<path class="st4" d="M311.5,150.9l2.2,1.3h-2.2V150.9z"/>
	<polygon class="st5" points="86.7,60.1 86.7,230.1 124.6,208.6 124.6,81.6 	"/>
	<text transform="matrix(1 0 0 1 86.1566 54.0399)" class="st1 st2 st6">En</text>
	<text transform="matrix(1 0 0 1 98.7166 54.0399)" class="st1 st2 st6">c</text>
	<text transform="matrix(1 0 0 1 104.0266 54.0399)" class="st1 st2 st6">oder</text>
	<polygon class="st5" points="305.2,61.1 305.2,231.1 267.2,209.6 267.2,82.6 	"/>
	<text transform="matrix(1 0 0 1 263.1166 54.0399)" class="st1 st2 st6">D</text>
	<text transform="matrix(1 0 0 1 271.1566 54.0399)" class="st1 st2 st6">e</text>
	<text transform="matrix(1 0 0 1 277.1666 54.0399)" class="st1 st2 st6">c</text>
	<text transform="matrix(1 0 0 1 282.4766 54.0399)" class="st1 st2 st6">oder</text>
	<rect x="138.9" y="81.7" class="st5" width="116" height="127"/>
	<rect x="196.9" y="81.2" class="st7" width="21" height="127.9"/>
	<text transform="matrix(1 0 0 1 193.5566 77.5599)" class="st1 st2 st3">r</text>
	<text transform="matrix(1 0 0 1 196.0966 77.5599)" class="st1 st2 st3">em</text>
	<text transform="matrix(1 0 0 1 206.7766 77.5599)" class="st1 st2 st3">o</text>
	<text transform="matrix(1 0 0 1 211.1066 77.5599)" class="st1 st2 st3">v</text>
	<text transform="matrix(1 0 0 1 214.9266 77.5599)" class="st1 st2 st3">al</text>
	<text transform="matrix(1 0 0 1 155.1766 232.2999)" class="st1 st2 st6">L</text>
	<text transform="matrix(1 0 0 1 160.8366 232.2999)" class="st1 st2 st6">a</text>
	<text transform="matrix(1 0 0 1 166.5766 232.2999)" class="st1 st2 st6">t</text>
	<text transform="matrix(1 0 0 1 170.4766 232.2999)" class="st1 st2 st6">e</text>
	<text transform="matrix(1 0 0 1 176.4866 232.2999)" class="st1 st2 st6">n</text>
	<text transform="matrix(1 0 0 1 183.0966 232.2999)" class="st1 st2 st6">t </text>
	<text transform="matrix(1 0 0 1 189.6166 232.2999)" class="st1 st2 st6">f</text>
	<text transform="matrix(1 0 0 1 192.9666 232.2999)" class="st1 st2 st6">e</text>
	<text transform="matrix(1 0 0 1 198.9766 232.2999)" class="st1 st2 st6">a</text>
	<text transform="matrix(1 0 0 1 204.7166 232.2999)" class="st1 st2 st6">tu</text>
	<text transform="matrix(1 0 0 1 215.2966 232.2999)" class="st1 st2 st6">r</text>
	<text transform="matrix(1 0 0 1 219.0966 232.2999)" class="st1 st2 st6">es</text>
	<path class="st5" d="M41.3,60.1v170h30.6v-170L41.3,60.1z M70,228.6H43.1V61.7H70V228.6z"/>
	<path class="st8" d="M69.6,62.3V228h-5.4c-1.4-2.9-2.9-5.8-4.3-8.7c-0.8-1.6-1.6-3.2-3.1-4.1c-2-1.2-4.9-0.6-6-3.5
		c-0.3-0.9-0.2-1.9,0.4-2.8c1.6-2.3,3.8-1.5,5.8-1.7c1.7-0.2,3.2-1.1,4.2-2.4c0.3-0.4,0.3-1.1-0.1-1.4H61c-0.4-0.4-0.4-1.1-0.1-1.5
		l0.8-0.8c0.2-0.2,0.2-0.6,0-0.9c-0.1-0.1-0.3-0.2-0.4-0.3c-0.6-0.5,0-1.5,0.5-2l3.1-2.8c0.4-0.4,0.4-1.1,0-1.5
		c-0.1-0.2-0.3-0.3-0.5-0.3c-2-0.4-4.3,0-6.4-0.2c-2.5-0.3-4.9-1.3-6.8-3.1c-0.5-0.4-0.8-1-0.8-1.6c-0.4-2.7,1.7-4.3,3.8-4.8
		c1.5-0.4,3.1-0.3,4.6-0.6c2-0.4,3.9-1.3,5.5-2.7c0.4-0.4,0.5-1.1,0.1-1.5c-0.1-0.1-0.2-0.2-0.4-0.3c-1.1-0.4-2.2-0.8-3.3-1.2
		c-0.5-0.2-0.8-0.8-0.6-1.3c0.1-0.2,0.2-0.4,0.4-0.5l1.9-1.3c0.2-0.1,0.3-0.2,0.4-0.4c0.2-0.4,0-1.1-0.5-1s-1.7,0.1-1.2-0.5l1.5-1
		c0.3-0.3,0.3-0.7,0-0.9c0,0-0.1,0-0.1-0.1c-1.2-0.9-2.6-1.5-4.1-1.7c-2.8-0.6,1.1-1.4,1.4-2.2c0.2-0.6-0.1-1.2-0.6-1.5
		c-0.5-0.3-1.1-0.4-1.7-0.4c-1.9-0.2-3.8-0.5-5.7-1.1c-0.6-0.2-0.8-0.8-0.7-1.4c0.1-0.2,0.2-0.4,0.4-0.5c1.4-1,2.9-1.9,4.5-2.5
		c0.6,0,1-0.5,0.9-1.1s-0.5-1-1.1-0.9c-2.2-0.4-4.3-1-6.4-1.7c-3.3-0.9,3-2.9,5.1-3s4.2,0,6.1-0.8c1.6-0.7,2.9-2.1,3.4-3.8
		c0.3-1-0.2-2-1.1-2.5c-0.4-0.2-0.8-0.4-1.2-0.5c-0.5-0.2-0.8-0.9-0.5-1.4c0.1-0.3,0.3-0.5,0.6-0.6l0.5-0.1c1.4-0.3,2.7-1.1,3.7-2.2
		c0.6-0.9,0.7-2,0.3-3c-0.3-0.5-0.1-1.1,0.4-1.4c0.1-0.1,0.3-0.2,0.4-0.3c1.1-0.6-0.8-1.2-0.7-1.9c0.2-1.2,0.9-2.5-0.9-3.7
		c-0.5-0.3-1-0.5-1.5-0.5c-2.6-0.3-5.1-1.3-7.3-2.8c-2.5-2-4.4-4.5-5.8-7.4c-1.8-3.6-3.1-7.4-3.8-11.3c-0.2-0.7,0.1-1.5,0.7-2
		c3.1-2.6,7.1-1.5,10.8-2c1.4-0.2,2.8-0.7,3.2-2.5c0.1-0.4,0-0.7-0.3-1c-0.7-0.8,0.1-2,1-2.3c0.9-0.2,1.8-0.5,2.6-0.9
		c1.5-1,1.3-3.3,2-5c0.4-1,1.2-2,1.1-3.1c-0.1-0.6-0.4-1.2-0.9-1.7c-2.2-3-4.2-6.2-5.8-9.6c-0.2-0.4-0.1-1,0.2-1.3
		c0.4-0.4,0.9-0.7,1.3-1.1c0.5-0.3,0.6-0.9,0.3-1.4c-0.2-0.3-0.4-0.4-0.8-0.5l-2.8-0.6c-0.7-0.1-1.5-0.4-2.1-0.8
		c-0.7-0.4-1-1.2-0.9-2c0.2-1,1.1-1.5,1.8-2.1c1.6-1.6,1.9-3.9,0.9-5.9L69.6,62.3z"/>
	<text transform="matrix(1 0 0 1 42.6266 54.0399)" class="st1 st2 st6">I</text>
	<text transform="matrix(1 0 0 1 45.6166 54.0399)" class="st1 st2 st6">nput</text>
	<text transform="matrix(1 0 0 1 40.0166 244.1199)" class="st1 st2 st3">R</text>
	<text transform="matrix(1 0 0 1 44.3566 244.1199)" class="st1 st2 st3">e</text>
	<text transform="matrix(1 0 0 1 48.3566 244.1199)" class="st1 st2 st3">c</text>
	<text transform="matrix(1 0 0 1 51.8966 244.1199)" class="st1 st2 st3">o</text>
	<text transform="matrix(1 0 0 1 56.2866 244.1199)" class="st1 st2 st3">r</text>
	<text transform="matrix(1 0 0 1 58.8266 244.1199)" class="st1 st2 st3">ded</text>
	<text transform="matrix(1 0 0 1 22.5166 253.7199)" class="st1 st2 st3">k</text>
	<text transform="matrix(1 0 0 1 26.3966 253.7199)" class="st1 st2 st3">inem</text>
	<text transform="matrix(1 0 0 1 43.3966 253.7199)" class="st1 st2 st3">a</text>
	<text transform="matrix(1 0 0 1 47.2166 253.7199)" class="st1 st2 st3">tic d</text>
	<text transform="matrix(1 0 0 1 61.5266 253.7199)" class="st1 st2 st3">a</text>
	<text transform="matrix(1 0 0 1 65.3566 253.7199)" class="st1 st2 st3">ta</text>
	<text transform="matrix(1 0 0 1 312.7066 54.0399)" class="st1 st2 st6">O</text>
	<text transform="matrix(1 0 0 1 321.0066 54.0399)" class="st1 st2 st6">utput</text>
	<path class="st9" d="M338.3,195.5c-0.1-0.1-0.2-0.1-0.3-0.1"/>
	<path class="st9" d="M338.6,231.8c-0.2-0.4-0.3-0.7-0.5-1"/>
	<path class="st9" d="M333.6,63.8c-0.1-0.4-0.3-0.7-0.6-1"/>
	<path class="st9" d="M338.5,114.1C338.5,114,338.4,114,338.5,114.1"/>
	<path class="st5" d="M316.8,62.3v170h30.6v-170H316.8z M345.5,230.8h-26.9V63.8h26.9L345.5,230.8z"/>
	<path class="st8" d="M345.5,63.8v166.9H338l-4.5-9.2c-0.8-1.6-1.6-3.2-3.1-4.1c-2-1.2-4.9-0.6-6-3.6c-0.3-0.9-0.2-1.9,0.4-2.8
		c1.5-2.3,3.8-1.5,5.9-1.7c1.7-0.2,3.2-1.1,4.2-2.4c0.3-0.4,0.3-1.1-0.1-1.4h-0.1c-0.4-0.4-0.4-1.1-0.1-1.5l0.8-0.8
		c0.2-0.2,0.2-0.6,0-0.9c-0.1-0.1-0.3-0.2-0.5-0.3c-0.6-0.5,0-1.5,0.5-2l3.1-2.9c0.4-0.4,0.5-1.1,0.1-1.5c-0.1-0.1-0.1-0.1-0.2-0.2
		l0,0c-2.4-2.5-3.9-5.8-4.1-9.3c0-2.1,2-2.6,3.6-4c0.5-0.4,0.5-1.1,0.1-1.5c-0.1-0.1-0.2-0.2-0.4-0.3c-1.1-0.4-2.2-0.8-3.3-1.2
		c-0.6-0.2-0.8-0.8-0.6-1.4c0.1-0.2,0.2-0.4,0.4-0.5l1.9-1.3c0.2-0.1,0.3-0.2,0.4-0.4c0.2-0.4,0-1.1-0.5-1s-1.7,0.1-1.2-0.5l1.5-1
		c0.3-0.2,0.3-0.7,0.1-0.9c0,0-0.1-0.1-0.1-0.1c-1.2-0.9-2.6-1.5-4.1-1.7c-2.8-0.7,1.1-1.4,1.5-2.2c0.2-0.6-0.1-1.2-0.6-1.5
		c-0.5-0.3-1.1-0.4-1.7-0.4c-1.9-0.2-3.8-0.6-5.7-1.1c-0.6-0.2-0.9-0.8-0.7-1.4c0.1-0.2,0.2-0.4,0.4-0.5c1.4-1,2.9-1.9,4.5-2.5
		c0.5-0.2,0.8-0.9,0.6-1.4c-0.1-0.3-0.4-0.5-0.7-0.6c-2.2-0.4-4.3-1-6.4-1.7c-3.3-0.9,3-2.9,5.1-3.1s4.2,0,6.1-0.8
		c1.6-0.8,2.9-2.2,3.4-3.9c0.3-1-0.2-2-1.1-2.5c-0.4-0.2-0.8-0.4-1.2-0.5c-0.5-0.2-0.8-0.8-0.6-1.4c0.1-0.3,0.4-0.5,0.7-0.6l0.5-0.1
		c1.4-0.3,2.7-1.1,3.7-2.2c0.6-0.9,0.7-2,0.3-3c-0.3-0.5-0.1-1.1,0.4-1.4l0.4-0.3c1.1-0.6-0.8-1.2-0.7-1.9c0.2-1.3,0.9-2.5-0.9-3.7
		c-0.5-0.2-1-0.4-1.5-0.5c-6.9-3.7,2.5-15.1,0.8-16.9c-9.6-11.9,0.3-4.5-3-11.2c-0.2-0.3,0-0.7-0.3-1c-0.7-0.8,0.1-2,1-2.4
		c0.9-0.2,1.8-0.5,2.6-0.9c1.5-1,1.3-3.3,2-5c0.4-1,1.2-2,1.1-3.2c-0.1-0.6-0.4-1.2-0.9-1.7c-2.2-3-4.2-6.3-5.8-9.7
		c-0.2-0.4-0.1-1,0.3-1.3c0.4-0.4,0.9-0.7,1.3-1.1c0.5-0.4,0.5-1,0.2-1.5c-0.1-0.2-0.3-0.3-0.6-0.4l-2.8-0.6
		c-0.7-0.1-1.5-0.4-2.1-0.8c-0.7-0.4-1-1.2-0.9-2c0.2-1,1.1-1.5,1.9-2.1c1.4-1.4,1.9-3.6,1.1-5.5L345.5,63.8z"/>
	<rect x="319.2" y="178.8" class="st7" width="26.3" height="17.5"/>
	<rect x="319.2" y="99.7" class="st7" width="26.3" height="30"/>
	<line class="st10" x1="316.5" y1="99.7" x2="43.6" y2="99.7"/>
	<line class="st10" x1="316.5" y1="129.7" x2="43.6" y2="129.7"/>
	<line class="st10" x1="316.5" y1="178.8" x2="43.6" y2="178.8"/>
	<line class="st10" x1="316.5" y1="196.3" x2="43.6" y2="196.3"/>
	<text transform="matrix(1 0 0 1 351.0418 116.4245)" class="st1 st2 st3">r</text>
	<text transform="matrix(1 0 0 1 353.5818 116.4245)" class="st1 st2 st3">em</text>
	<text transform="matrix(1 0 0 1 364.2619 116.4245)" class="st1 st2 st3">o</text>
	<text transform="matrix(1 0 0 1 368.5919 116.4245)" class="st1 st2 st3">v</text>
	<text transform="matrix(1 0 0 1 372.4118 116.4245)" class="st1 st2 st3">al</text>
	<text transform="matrix(1 0 0 1 351.0416 189.2594)" class="st1 st2 st3">r</text>
	<text transform="matrix(1 0 0 1 353.5816 189.2594)" class="st1 st2 st3">em</text>
	<text transform="matrix(1 0 0 1 364.2616 189.2594)" class="st1 st2 st3">o</text>
	<text transform="matrix(1 0 0 1 368.5916 189.2594)" class="st1 st2 st3">v</text>
	<text transform="matrix(1 0 0 1 372.4116 189.2594)" class="st1 st2 st3">al</text>
</g>
</svg>
