<?xml version="1.0" encoding="utf-8"?>
<!-- Generator: Adobe Adobe Illustrator 29.2.0, SVG Export Plug-In . SVG Version: 6.00 Build 0)  -->
<svg version="1.1" id="Layer_1" xmlns="http://www.w3.org/2000/svg" xmlns:xlink="http://www.w3.org/1999/xlink" x="0px" y="0px"
	 width="2345.9px" height="1337.3px" viewBox="0 0 2345.9 1337.3" style="enable-background:new 0 0 2345.9 1337.3;"
	 xml:space="preserve">
<style type="text/css">
	.st0{fill:#FFFFFF;}
	.st1{font-family:'SourceSansPro-Regular';}
	.st2{font-size:49.79px;}
	.st3{fill:#FFFFFF;stroke:#FFFFFF;stroke-width:0.25;stroke-miterlimit:10;}
	.st4{fill:#B7CFDA;stroke:#B7CFDA;stroke-miterlimit:10;}
	.st5{font-size:74.69px;}
	.st6{opacity:0.7;fill:#441F52;stroke:#FFFFFF;stroke-width:2;stroke-miterlimit:10;enable-background:new    ;}
	.st7{fill:#B7CFDA;stroke:#B7CFDA;stroke-width:3;stroke-miterlimit:10;}
	.st8{fill:#F9B876;stroke:#E83F2E;stroke-miterlimit:10;}
	.st9{fill:none;stroke:#010101;stroke-miterlimit:10;}
	.st10{fill:none;stroke:#FFFFFF;stroke-width:3;stroke-miterlimit:10;stroke-dasharray:8,5,8,5,8,5;}
</style>
<g>
	<text transform="matrix(1 0 0 1 1887.7638 1251.3486)" class="st0 st1 st2">G</text>
	<text transform="matrix(1 0 0 1 1920.1738 1251.3486)" class="st0 st1 st2">ene</text>
	<text transform="matrix(1 0 0 1 1997.7039 1251.3486)" class="st0 st1 st2">r</text>
	<text transform="matrix(1 0 0 1 2013.7439 1251.3486)" class="st0 st1 st2">a</text>
	<text transform="matrix(1 0 0 1 2037.5437 1251.3486)" class="st0 st1 st2">t</text>
	<text transform="matrix(1 0 0 1 2053.7239 1251.3486)" class="st0 st1 st2">ed</text>
	<text transform="matrix(1 0 0 1 1887.7638 1311.0986)" class="st0 st1 st2">k</text>
	<text transform="matrix(1 0 0 1 1911.9637 1311.0986)" class="st0 st1 st2">inem</text>
	<text transform="matrix(1 0 0 1 2017.7239 1311.0986)" class="st0 st1 st2">a</text>
	<text transform="matrix(1 0 0 1 2041.5237 1311.0986)" class="st0 st1 st2">tic d</text>
	<text transform="matrix(1 0 0 1 2130.6038 1311.0986)" class="st0 st1 st2">a</text>
	<text transform="matrix(1 0 0 1 2154.4038 1311.0986)" class="st0 st1 st2">ta</text>
	<rect x="403.1" y="675.2" class="st3" width="13.8" height="7.9"/>
	<polyline class="st3" points="416.7,679.2 416.9,679.2 417,679.2 	"/>
	<path class="st3" d="M417,687.3l13.4-8l0,0H417l0,0L417,687.3C417,687.3,417,687.3,417,687.3z"/>
	<path class="st3" d="M417,670.9l13.5,8l0,0H417l0,0L417,670.9C417,670.9,417,670.9,417,670.9z"/>
	<rect x="735" y="675.2" class="st3" width="13.8" height="7.9"/>
	<polyline class="st3" points="748.7,679.2 748.8,679.2 748.9,679.2 	"/>
	<path class="st3" d="M749,687.3l13.4-8l0,0H749l0,0L749,687.3C749,687.3,749,687.3,749,687.3z"/>
	<path class="st3" d="M749,670.9l13.5,8l0,0H749l0,0L749,670.9C749,670.9,749,670.9,749,670.9z"/>
	<rect x="1535.3" y="675.2" class="st3" width="13.8" height="7.9"/>
	<polyline class="st3" points="1548.9,679.2 1549,679.2 1549.2,679.2 	"/>
	<path class="st3" d="M1549.2,687.3l13.4-8l0,0h-13.4l0,0L1549.2,687.3C1549.2,687.3,1549.2,687.3,1549.2,687.3z"/>
	<path class="st3" d="M1549.2,670.9l13.4,8l0,0h-13.5l0,0L1549.2,670.9C1549.2,670.9,1549.2,670.9,1549.2,670.9z"/>
	<rect x="1850.1" y="675.2" class="st3" width="13.8" height="7.9"/>
	<polyline class="st3" points="1863.8,679.2 1863.9,679.2 1864,679.2 	"/>
	<path class="st3" d="M1864.1,687.3l13.4-8l0,0h-13.4l0,0V687.3C1864.1,687.3,1864.1,687.3,1864.1,687.3z"/>
	<path class="st3" d="M1864.1,670.9l13.4,8l0,0h-13.4l0,0V670.9C1864.1,670.9,1864.1,670.9,1864.1,670.9z"/>
	<polygon class="st4" points="464.4,106.1 464.4,1164.2 700.7,1030.4 700.7,240 	"/>
	<text transform="matrix(1 0 0 1 461.2538 68.2386)" class="st0 st1 st5">En</text>
	<text transform="matrix(1 0 0 1 539.4537 68.2386)" class="st0 st1 st5">c</text>
	<text transform="matrix(1 0 0 1 572.4637 68.2386)" class="st0 st1 st5">oder</text>
	<polygon class="st4" points="1824.6,112.3 1824.6,1170.4 1588.2,1036.6 1588.2,246.2 	"/>
	<text transform="matrix(1 0 0 1 1562.6637 68.2386)" class="st0 st1 st5">D</text>
	<text transform="matrix(1 0 0 1 1612.7037 68.2386)" class="st0 st1 st5">e</text>
	<text transform="matrix(1 0 0 1 1650.1237 68.2386)" class="st0 st1 st5">c</text>
	<text transform="matrix(1 0 0 1 1683.1337 68.2386)" class="st0 st1 st5">oder</text>
	<rect x="789.7" y="240.3" class="st4" width="722" height="790.5"/>
	<rect x="1150.7" y="240.9" class="st6" width="130.7" height="789.9"/>
	<text transform="matrix(1 0 0 1 1129.7338 214.6786)" class="st0 st1 st2">r</text>
	<text transform="matrix(1 0 0 1 1145.5138 214.6786)" class="st0 st1 st2">em</text>
	<text transform="matrix(1 0 0 1 1211.9938 214.6786)" class="st0 st1 st2">o</text>
	<text transform="matrix(1 0 0 1 1238.9838 214.6786)" class="st0 st1 st2">v</text>
	<text transform="matrix(1 0 0 1 1262.7338 214.6786)" class="st0 st1 st2">al</text>
	<text transform="matrix(1 0 0 1 890.8538 1177.7886)" class="st0 st1 st5">L</text>
	<text transform="matrix(1 0 0 1 926.1038 1177.7886)" class="st0 st1 st5">a</text>
	<text transform="matrix(1 0 0 1 961.8038 1177.7886)" class="st0 st1 st5">t</text>
	<text transform="matrix(1 0 0 1 986.0837 1177.7886)" class="st0 st1 st5">e</text>
	<text transform="matrix(1 0 0 1 1023.5038 1177.7886)" class="st0 st1 st5">n</text>
	<text transform="matrix(1 0 0 1 1064.6538 1177.7886)" class="st0 st1 st5">t </text>
	<text transform="matrix(1 0 0 1 1105.2137 1177.7886)" class="st0 st1 st5">f</text>
	<text transform="matrix(1 0 0 1 1126.0437 1177.7886)" class="st0 st1 st5">e</text>
	<text transform="matrix(1 0 0 1 1163.4637 1177.7886)" class="st0 st1 st5">a</text>
	<text transform="matrix(1 0 0 1 1199.1638 1177.7886)" class="st0 st1 st5">tu</text>
	<text transform="matrix(1 0 0 1 1265.0437 1177.7886)" class="st0 st1 st5">r</text>
	<text transform="matrix(1 0 0 1 1288.7238 1177.7886)" class="st0 st1 st5">es</text>
	<path class="st7" d="M181.9,106.1v1058.1h190.4V106.1H181.9z M360.7,1154.7H193.5V115.6h167.2V1154.7z"/>
	<path class="st8" d="M358.8,117.7v1035H325c-9-18-17.9-36.1-26.8-54.2c-4.9-9.7-10.2-20.1-19.5-25.4c-12.8-7.3-30.7-3.6-37.3-22.1
		c-2-5.8-1.1-12.1,2.3-17.2c9.7-14.2,23.8-9.1,36.5-10.5c10.4-1.3,19.9-6.8,26.3-15.1c2-2.8,1.7-6.6-0.8-8.9l-0.4-0.2
		c-2.6-2.5-2.8-6.7-0.4-9.4l4.8-5.1c1.3-1.6,1.2-3.9-0.2-5.4c-0.8-0.7-1.9-1-2.8-1.7c-3.8-3-0.2-9.1,3.4-12.4l19.2-17.7
		c2.7-2.5,2.8-6.6,0.4-9.3c-0.9-1-2.2-1.7-3.5-2c-12.8-2.5-26.9-0.1-40.2-1.4c-15.9-1.6-30.8-8.4-42.5-19.3
		c-2.9-2.7-4.7-6.2-5.3-10.1c-2.6-17.1,10.5-26.6,23.6-29.9c9.5-2.4,19.3-2.2,28.9-4c12.8-2.5,24.6-8.4,34.4-17
		c3.7-3.2,2.8-9.4-1.8-11.2c-6.8-2.7-13.7-5.2-20.7-7.6c-3.4-1.2-5.2-5-4-8.4c0.5-1.3,1.3-2.4,2.5-3.2l12-8c1.1-0.6,2-1.5,2.6-2.5
		c1.2-2.4-0.3-6.8-2.9-6.5c-2.2,0.3-10.8,0.4-7.6-3l9.5-6.3c1.7-1.5,1.9-4.1,0.4-5.8c-0.3-0.3-0.5-0.5-0.9-0.7
		c-7.6-5.7-16.4-9.4-25.8-10.8c-17.4-4,6.8-8.5,9.1-13.5c1.5-3.3-0.7-7.5-3.8-9.4s-6.8-2.1-10.3-2.4c-12.1-1-24.1-3.3-35.7-7
		c-3.5-1.2-5.3-5-4.1-8.5c0.4-1.3,1.2-2.4,2.3-3.2c8.7-6.3,18.2-11.5,28.1-15.6c5.9-2.4,5.2-11.2-1-12.4
		c-13.6-2.6-27.1-6.1-40.2-10.3c-20.6-5.5,18.9-17.9,31.7-19s26.2,0.2,38.1-4.9c10.2-4.6,18-13.3,21.4-23.9c1.9-6.1-1-12.7-6.8-15.4
		c-2.4-1.2-4.8-2.3-7.3-3.3c-5.4-2.4-5.1-10.4,0.5-12.2l2.9-0.9c8.6-2.8,17.8-6.1,23.4-13.6c3.8-5.2,4.6-13,1.9-18.5
		c-1.6-3.2-0.5-7,2.5-8.9c0.9-0.5,1.7-1.1,2.5-1.8c6.8-3.8-5.1-7.4-4.3-12c1.3-7.8,5.6-15.6-5.8-23.1c-2.8-1.8-6.1-2.9-9.4-3.3
		c-16.1-2.4-32.2-7.6-45.6-17.2c-15.8-11.4-27-28.4-36-46.1c-11.2-22.2-19.2-45.9-23.9-70.4c-0.9-4.6,0.7-9.3,4.3-12.3
		c19.5-16.2,44.5-9.2,67.4-12.6c8.6-1.3,17.6-4.5,20.2-15.6c0.4-2.3-0.3-4.6-1.9-6.3c-4.4-4.8,0.4-12.3,5.9-14.7
		c5.3-2.3,11.5-2.4,16.3-5.8c9.1-6.5,8.2-20.6,12.6-31.1c2.8-6.4,7.8-12.5,6.9-19.5c-0.6-4-3.1-7.4-5.4-10.5
		c-13.9-18.8-26-38.9-36.2-59.9c-1.3-2.7-0.7-6,1.6-8c2.8-2.4,5.5-4.6,8.3-6.8c4.4-3.4,3-10.5-2.4-11.7l-17.7-3.7
		c-4.6-1-9.3-2-13.1-4.8s-6.7-7.6-5.8-12.4c1.1-6,7.1-9.2,11.6-13.2c9.7-8.9,12.1-25.2,5.9-36.9H358.8z"/>
	<text transform="matrix(1 0 0 1 190.3337 68.2386)" class="st0 st1 st5">I</text>
	<text transform="matrix(1 0 0 1 208.9337 68.2386)" class="st0 st1 st5">nput</text>
	<text transform="matrix(1 0 0 1 174.0938 1251.3486)" class="st0 st1 st2">R</text>
	<text transform="matrix(1 0 0 1 201.0837 1251.3486)" class="st0 st1 st2">e</text>
	<text transform="matrix(1 0 0 1 226.0237 1251.3486)" class="st0 st1 st2">c</text>
	<text transform="matrix(1 0 0 1 248.0338 1251.3486)" class="st0 st1 st2">o</text>
	<text transform="matrix(1 0 0 1 275.3737 1251.3486)" class="st0 st1 st2">r</text>
	<text transform="matrix(1 0 0 1 291.1537 1251.3486)" class="st0 st1 st2">ded</text>
	<text transform="matrix(1 0 0 1 65.1437 1311.0986)" class="st0 st1 st2">k</text>
	<text transform="matrix(1 0 0 1 89.3438 1311.0986)" class="st0 st1 st2">inem</text>
	<text transform="matrix(1 0 0 1 195.1038 1311.0986)" class="st0 st1 st2">a</text>
	<text transform="matrix(1 0 0 1 218.9037 1311.0986)" class="st0 st1 st2">tic d</text>
	<text transform="matrix(1 0 0 1 307.9838 1311.0986)" class="st0 st1 st2">a</text>
	<text transform="matrix(1 0 0 1 331.7838 1311.0986)" class="st0 st1 st2">ta</text>
	<text transform="matrix(1 0 0 1 1871.3638 68.2386)" class="st0 st1 st5">O</text>
	<text transform="matrix(1 0 0 1 1923.0438 68.2386)" class="st0 st1 st5">utput</text>
	<path class="st9" d="M2031,948.6c-0.7-0.4-1.4-0.7-2.1-0.8"/>
	<path class="st9" d="M2032.3,1174.7c-1.1-2.2-2.1-4.4-3.2-6.5"/>
	<path class="st9" d="M2001.3,129.2c-0.9-2.3-2.1-4.5-3.6-6.5"/>
	<path class="st9" d="M2031.8,441.9c-0.2-0.2-0.3-0.4-0.6-0.6"/>
	<path class="st7" d="M1896.5,119.6v1058.1h190.4V119.6H1896.5z M2075.3,1168.2h-167.2v-1039h167.2V1168.2z"/>
	<path class="st8" d="M2073.3,131.2v1034.9H2027l-28-56.9c-4.8-9.8-10.2-20.2-19.4-25.4c-12.7-7.3-30.5-3.7-37-22.2
		c-2-5.7-1.2-12.1,2.2-17.1c9.7-14.2,23.7-9.1,36.4-10.5c10.4-1.3,19.8-6.7,26.1-15.1c2-2.7,1.7-6.6-0.8-8.9l-0.4-0.3
		c-2.6-2.5-2.8-6.6-0.4-9.4l4.7-5.2c1.4-1.6,1.3-3.9-0.2-5.4c-0.8-0.7-1.9-1-2.8-1.8c-3.7-3-0.2-9,3.4-12.3l19.1-17.8
		c2.7-2.5,2.8-6.6,0.4-9.3c-0.3-0.4-0.7-0.7-1.1-1c-0.1-0.1-0.2-0.1-0.2-0.2c-8-6-25.6-33.3-25.6-57.7c0-12.7,12.6-16.1,22.3-24.7
		c3.7-3.3,2.8-9.5-1.7-11.2c-6.9-2.7-13.7-5.1-20.6-7.5c-3.4-1.3-5.2-5.1-3.9-8.5c0.5-1.3,1.3-2.4,2.4-3.1l11.9-8.1
		c1.1-0.6,2-1.4,2.6-2.5c1.2-2.4-0.3-6.8-2.9-6.5c-2.2,0.3-10.8,0.4-7.5-3l9.5-6.3c1.7-1.5,1.9-4.1,0.4-5.9
		c-0.2-0.3-0.5-0.5-0.8-0.7c-7.5-5.7-16.4-9.4-25.7-10.7c-17.3-4.1,6.8-8.6,9-13.6c1.5-3.3-0.6-7.4-3.7-9.4s-6.8-2.1-10.3-2.4
		c-12-1.1-23.9-3.4-35.5-7c-3.5-1.2-5.3-5-4.1-8.5c0.4-1.2,1.2-2.3,2.3-3.1c8.7-6.3,18.1-11.6,28-15.7c5.9-2.5,5.2-11.3-1-12.5
		c-13.5-2.6-26.9-6-40-10.3c-20.5-5.5,18.7-17.8,31.5-19s26.1,0.2,38-4.9c10.1-4.6,17.8-13.3,21.2-23.9c1.9-6.1-1-12.7-6.7-15.5
		c-2.4-1.2-4.8-2.3-7.2-3.3c-5.4-2.3-5.2-10.4,0.4-12.2l2.9-0.9c8.6-2.9,17.7-6.1,23.2-13.6c3.8-5.4,4.5-12.4,1.9-18.5
		c-1.6-3.1-0.5-7,2.5-8.8c0.8-0.6,1.6-1.2,2.4-1.8c6.8-3.8-5-7.5-4.3-12c1.2-7.8,5.5-15.6-5.7-23.1c-2.8-1.9-6.4-1.8-9.3-3.3
		c-43-22.8,15.8-93.7,4.9-105c-59.9-73.6,2.1-27.8-18.4-69.1c-1.1-2.1-0.3-4.6-1.9-6.3c-4.4-4.8,0.4-12.3,5.9-14.7
		c5.3-2.4,11.4-2.4,16.2-5.8c9.1-6.4,8.2-20.5,12.6-31.1c2.7-6.5,7.7-12.6,6.8-19.5c-0.6-4-3.1-7.4-5.4-10.6
		c-13.8-18.8-25.9-38.9-36-59.9c-1.3-2.7-0.6-5.9,1.6-7.9c2.7-2.4,5.4-4.6,8.3-6.8c4.4-3.4,2.9-10.5-2.4-11.7l-17.6-3.6
		c-4.5-0.9-9.2-2.1-13-4.8s-6.6-7.6-5.7-12.4c1.1-5.9,7.1-9.2,11.5-13.2c9-8.2,11.6-22.8,7.1-34.1L2073.3,131.2z"/>
	<rect x="1911.6" y="844.7" class="st6" width="163.8" height="108.9"/>
	<rect x="1911.6" y="352.5" class="st6" width="163.8" height="186.8"/>
	<line class="st10" x1="1894.7" y1="352.5" x2="196.7" y2="352.5"/>
	<line class="st10" x1="1894.7" y1="539.2" x2="196.7" y2="539.2"/>
	<line class="st10" x1="1895.1" y1="844.7" x2="196.7" y2="844.7"/>
	<line class="st10" x1="1895.1" y1="953.6" x2="196.7" y2="953.6"/>
	<text transform="matrix(1 0 0 1 2109.936 456.5487)" class="st0 st1 st2">r</text>
	<text transform="matrix(1 0 0 1 2125.7163 456.5487)" class="st0 st1 st2">em</text>
	<text transform="matrix(1 0 0 1 2192.1963 456.5487)" class="st0 st1 st2">o</text>
	<text transform="matrix(1 0 0 1 2219.186 456.5487)" class="st0 st1 st2">v</text>
	<text transform="matrix(1 0 0 1 2242.936 456.5487)" class="st0 st1 st2">al</text>
	<text transform="matrix(1 0 0 1 2109.936 909.8436)" class="st0 st1 st2">r</text>
	<text transform="matrix(1 0 0 1 2125.7163 909.8436)" class="st0 st1 st2">em</text>
	<text transform="matrix(1 0 0 1 2192.1963 909.8436)" class="st0 st1 st2">o</text>
	<text transform="matrix(1 0 0 1 2219.186 909.8436)" class="st0 st1 st2">v</text>
	<text transform="matrix(1 0 0 1 2242.936 909.8436)" class="st0 st1 st2">al</text>
</g>
</svg>
