<svg id="Layer_1" data-name="Layer 1" xmlns="http://www.w3.org/2000/svg" viewBox="0 0 560.1 743.47"><defs><style>.cls-1{fill:#7d7d7d;stroke:#fff;}.cls-1,.cls-17,.cls-18{stroke-miterlimit:10;}.cls-1,.cls-17,.cls-2{opacity:0.7;}.cls-2,.cls-6{font-size:36px;fill:#fff;font-family:SourceSansPro-Regular, SourceSansPro Regular;}.cls-3{letter-spacing:-0.03em;}.cls-4{letter-spacing:0em;}.cls-5{letter-spacing:0em;}.cls-7{letter-spacing:-0.01em;}.cls-8{letter-spacing:0.03em;}.cls-9{letter-spacing:-0.01em;}.cls-10{letter-spacing:0em;}.cls-11{letter-spacing:0em;}.cls-12{letter-spacing:-0.04em;}.cls-13{letter-spacing:-0.02em;}.cls-14{letter-spacing:0em;}.cls-15{letter-spacing:-0.01em;}.cls-16{letter-spacing:0.01em;}.cls-17,.cls-18{fill:#b0b0b0;stroke:#ffb01f;}</style></defs><rect class="cls-1" x="34.5" y="561.54" width="22" height="91.99"/><rect class="cls-1" x="34.5" y="198.53" width="22" height="92.63"/><text class="cls-2" transform="translate(114.88 165.44)"><tspan class="cls-3">F</tspan><tspan x="16.6" y="0">inding d</tspan><tspan class="cls-4" x="141.77" y="0">a</tspan><tspan class="cls-5" x="158.97" y="0">taset</tspan></text><text class="cls-6" transform="translate(114.88 345.33)">D<tspan class="cls-4" x="23.98" y="0">a</tspan><tspan x="41.18" y="0">ta p</tspan><tspan class="cls-7" x="98.57" y="0">r</tspan><tspan class="cls-8" x="109.98" y="0">e</tspan><tspan x="129.02" y="0">-p</tspan><tspan class="cls-7" x="160.56" y="0">r</tspan><tspan x="171.97" y="0">o</tspan><tspan class="cls-9" x="191.73" y="0">c</tspan><tspan x="207.64" y="0">essing</tspan></text><text class="cls-2" transform="translate(114.88 525.23)">D<tspan class="cls-4" x="23.98" y="0">a</tspan><tspan x="41.18" y="0">ta </tspan><tspan class="cls-10" x="78.08" y="0">A</tspan><tspan x="100.01" y="0">nal</tspan><tspan class="cls-9" x="145.83" y="0">y</tspan><tspan class="cls-11" x="162.57" y="0">sis</tspan></text><text class="cls-2" transform="translate(114.88 705.12)">D<tspan class="cls-4" x="23.98" y="0">a</tspan><tspan x="41.18" y="0">ta</tspan><tspan class="cls-12" x="70.45" y="0"> </tspan><tspan class="cls-13" x="76.79" y="0">V</tspan><tspan x="96.3" y="0">isualiz</tspan><tspan class="cls-14" x="188.49" y="0">a</tspan><tspan x="205.7" y="0">tion</tspan></text><rect class="cls-1" x="34.5" y="342.1" width="22" height="130.33"/><text class="cls-6" transform="translate(0.5 30.13)"><tspan class="cls-10">S</tspan><tspan x="17.64" y="0">t</tspan><tspan class="cls-4" x="29.56" y="0">a</tspan><tspan class="cls-9" x="46.76" y="0">t</tspan><tspan x="58.46" y="0">e of de</tspan><tspan class="cls-7" x="160.38" y="0">v</tspan><tspan x="177.33" y="0">elopme</tspan><tspan class="cls-14" x="292.17" y="0">n</tspan><tspan x="312.01" y="0">t of the p</tspan><tspan class="cls-15" x="447.51" y="0">r</tspan><tspan x="458.92" y="0">oje</tspan><tspan class="cls-16" x="505.47" y="0">c</tspan><tspan x="522.07" y="0">t:</tspan></text><circle class="cls-17" cx="45.5" cy="154.42" r="45"/><circle class="cls-17" cx="45.5" cy="697.97" r="45"/><circle class="cls-18" cx="45.5" cy="335.6" r="45"/><circle class="cls-17" cx="45.5" cy="516.79" r="45"/><text class="cls-2" transform="translate(35.37 168.78)">1</text><text class="cls-2" transform="translate(35.37 708.47)">4</text><text class="cls-2" transform="translate(35.37 528.57)">3</text><text class="cls-6" transform="translate(35.37 348.68)">2</text></svg>