<?xml version="1.0" encoding="utf-8"?>
<!-- Generator: Adobe Adobe Illustrator 29.2.0, SVG Export Plug-In . SVG Version: 6.00 Build 0)  -->
<svg version="1.1" xmlns="http://www.w3.org/2000/svg" xmlns:xlink="http://www.w3.org/1999/xlink" x="0px" y="0px" width="400px"
	 height="300px" viewBox="0 0 400 300" style="enable-background:new 0 0 400 300;" xml:space="preserve">
<style type="text/css">
	.st0{fill:none;}
	.st1{fill:#FFFFFF;}
	.st2{font-family:'SourceSansPro-Regular';}
	.st3{font-size:12px;}
	.st4{opacity:0.302;fill:none;stroke:#F7A6D7;stroke-miterlimit:10;}
	.st5{opacity:0.302;fill:none;stroke:#F3A6D5;stroke-miterlimit:10;stroke-dasharray:5,4,5,4,5,4;}
	.st6{fill:none;stroke:#F3A6D5;stroke-miterlimit:10;}
	.st7{opacity:0.302;fill:none;stroke:#F1A6D4;stroke-miterlimit:10;}
	.st8{opacity:0.302;fill:none;stroke:#F5A6D6;stroke-miterlimit:10;stroke-dasharray:5,4,5,4,5,4;}
	.st9{fill:none;stroke:#F5A6D6;stroke-miterlimit:10;}
	.st10{font-size:6px;}
	.st11{font-size:4.3264px;}
	.st12{fill:#4F6AB3;stroke:#FFFFFF;stroke-width:0.25;stroke-miterlimit:10;}
	.st13{opacity:0.2;fill:#FFFFFF;stroke:#FFFFFF;stroke-miterlimit:10;}
	.st14{font-family:'SourceSansPro-It';}
	.st15{opacity:0.4;fill:#AE00FF;}
	.st16{fill:none;stroke:#FFFFFF;stroke-miterlimit:10;}
	.st17{opacity:0.4;fill:#FF00EA;}
	.st18{opacity:0.4;fill:#00FFD4;}
	.st19{opacity:0.4;fill:#E3F700;}
	.st20{opacity:0.4;fill:#D500FF;}
	.st21{opacity:0.4;fill:#00B7FF;}
	.st22{opacity:0.4;fill:#00E645;}
	.st23{font-size:8px;}
</style>
<g id="Layer_1">
	<g>
		<rect x="13.23" y="43.78" class="st0" width="178.02" height="11.02"/>
		<text transform="matrix(1 0 0 1 13.2291 52.3262)" class="st1 st2 st3">Shoulder kinematics data</text>
		<rect x="212.06" y="43.78" class="st0" width="174.71" height="34.51"/>
		<text transform="matrix(1 0 0 1 215.9897 52.3262)" class="st1 st2 st3">Unsupervised learning techniques</text>
		<g>
			<line class="st4" x1="65.74" y1="74.85" x2="65.74" y2="145.03"/>
			<line class="st5" x1="83.49" y1="87.29" x2="83.49" y2="157.47"/>
			<line class="st5" x1="101.24" y1="100.3" x2="101.24" y2="170.48"/>
			<line class="st4" x1="65.9" y1="145.03" x2="198.69" y2="145.03"/>
			<line class="st5" x1="83.49" y1="157.47" x2="153.67" y2="157.47"/>
			<line class="st5" x1="101.24" y1="170.48" x2="171.42" y2="170.48"/>
			<line class="st6" x1="116.52" y1="112.08" x2="116.52" y2="182.26"/>
			<line class="st6" x1="116.52" y1="182.26" x2="186.7" y2="182.26"/>
			<line class="st7" x1="65.74" y1="145.03" x2="116.52" y2="182.26"/>
			<line class="st4" x1="65.74" y1="145.03" x2="16.22" y2="175.87"/>
			<line class="st8" x1="83.49" y1="157.74" x2="33.97" y2="188.58"/>
			<line class="st8" x1="101.24" y1="170.53" x2="51.71" y2="201.37"/>
			<line class="st9" x1="116.52" y1="182.26" x2="67" y2="213.1"/>
			<rect x="178.89" y="138.09" class="st0" width="41.49" height="11.86"/>
			<text transform="matrix(1 0 0 1 178.8884 142.3648)" class="st1 st2 st10">Frontal</text>
			<text transform="matrix(1 0 0 1 61.1345 83.1205)"><tspan x="0" y="0" class="st1 st2 st11">L</tspan><tspan x="0" y="5.19" class="st1 st2 st11">o</tspan><tspan x="0" y="10.38" class="st1 st2 st11">n</tspan><tspan x="0" y="15.57" class="st1 st2 st11">g</tspan><tspan x="0" y="20.77" class="st1 st2 st11">i</tspan><tspan x="0" y="25.96" class="st1 st2 st11">t</tspan><tspan x="0" y="31.15" class="st1 st2 st11">u</tspan><tspan x="0" y="36.34" class="st1 st2 st11">d</tspan><tspan x="0" y="41.53" class="st1 st2 st11">i</tspan><tspan x="0" y="46.72" class="st1 st2 st11">n</tspan><tspan x="0" y="51.92" class="st1 st2 st11">a</tspan><tspan x="0" y="57.11" class="st1 st2 st11">l</tspan></text>
			
				<rect x="13.22" y="157.71" transform="matrix(0.848 -0.5299 0.5299 0.848 -81.5575 42.8649)" class="st0" width="41.49" height="11.86"/>
			<text transform="matrix(0.8481 -0.5299 0.5299 0.8481 15.4926 173.2312)" class="st1 st2 st10">Sagittal</text>
			
				<rect x="186.99" y="224.9" transform="matrix(0.5878 -0.809 0.809 0.5878 -114.2927 256.8612)" class="st0" width="15.86" height="31.36"/>
			<text transform="matrix(0.809 0.5878 -0.5878 0.809 184.3754 228.4113)" class="st1 st2 st10">Time</text>
			<circle class="st12" cx="136.37" cy="149.57" r="1.57"/>
			<circle class="st12" cx="130.95" cy="162.87" r="1.57"/>
			<circle class="st12" cx="120.04" cy="157.47" r="1.57"/>
			<circle class="st12" cx="120.7" cy="173.27" r="1.57"/>
			<circle class="st12" cx="130.95" cy="169.13" r="1.57"/>
			<circle class="st12" cx="102.96" cy="201.18" r="1.57"/>
			<circle class="st12" cx="126.81" cy="190.23" r="1.57"/>
			<circle class="st12" cx="122.27" cy="201.18" r="1.57"/>
			<circle class="st12" cx="151.57" cy="224.97" r="1.57"/>
			<circle class="st12" cx="161.33" cy="242.05" r="1.57"/>
			<circle class="st12" cx="161.33" cy="170.7" r="1.57"/>
			<circle class="st12" cx="151.57" cy="185.69" r="1.57"/>
			<circle class="st12" cx="162.9" cy="211.69" r="1.57"/>
			<circle class="st12" cx="150" cy="202.75" r="1.57"/>
			<circle class="st12" cx="164.47" cy="196.54" r="1.57"/>
			<circle class="st12" cx="157.01" cy="187.27" r="1.57"/>
			<circle class="st12" cx="126.81" cy="202.75" r="1.57"/>
			<circle class="st12" cx="126.81" cy="174.84" r="1.57"/>
			<circle class="st12" cx="175.33" cy="182.93" r="1.57"/>
			<circle class="st12" cx="179.77" cy="181.36" r="1.57"/>
			<circle class="st12" cx="168.79" cy="206.47" r="1.57"/>
			<line class="st6" x1="116.52" y1="182.57" x2="194.91" y2="239.02"/>
			<path class="st13" d="M136.91,193.7c-2.54-0.42-4.93-1.76-6.6-3.72c-0.87-1.01-1.58-2.21-2.72-2.91c-1.75-1.06-4.2-0.56-5.64,0.9
				c-1.44,1.46-1.94,3.68-1.62,5.71c0.15,0.98,0.48,1.96,0.32,2.94c-0.25,1.46-1.52,2.53-2.06,3.91c-1.03,2.64-5.57,0.8-8.29-0.46
				c-1.26-0.58-4.58-2.26-7.13-2.26c-2.65,0-3.9,4.77-4.38,7.37c-0.37,2.02,0.46,3.3,0.9,4.02c1.49,2.43,16.56,14.87,18.27,17.15
				c2.96,3.93,6.49,7.78,11.17,9.27c3.73,1.19,7.56,2.43,10.56,4.95c2.12,1.78,3.88,4.21,6.54,4.96c2.12,0.59,4.38-0.03,6.57,0.18
				c2.6,0.26,4.94,1.68,7.49,2.24c2.55,0.56,5.82-0.17,6.62-2.66c0.46-1.42-0.05-3-0.92-4.22s-2.05-2.16-3.14-3.19
				c-3.14-2.96-5.61-6.92-5.71-11.24c-0.08-3.49-0.38-7.02-1.48-10.34s-3.05-6.44-5.92-8.43c-1.94-1.34-4.2-2.13-6.26-3.28
				c-2.06-1.15-4.01-2.84-4.58-5.13c-0.3-1.19-0.35-2.42-0.41-3.64C138.45,194.74,138.76,194.2,136.91,193.7z"/>
			<path class="st13" d="M136.08,143.13c-4.03,0.5-6.43,0.94-7.34,4.22c-0.12,0.43-0.43,0.8-0.85,0.98
				c-3.98,1.72-8.75,0.27-12.8,1.83c-4.53,1.74-7,7.53-5.12,12.01c2.37,2.44,3.71,5.84,3.63,9.24c-0.01,0.64-0.33,1.23-0.86,1.58
				c-7.96,5.18-14.61,12.37-19.15,20.71c-0.68,1.24-1.31,2.52-1.84,3.83c-1.82,4.5,0.17,9.97,4.66,11.8
				c3.93,1.6,8.47,0.72,12.29-1.11c1.04-0.5,2.05-1.06,2.91-1.83c2.83-2.54,3.51-6.82,6.25-9.45c2.04-1.97,4.96-2.74,7.78-3.02
				c0.83-0.08,1.66-0.13,2.49-0.17c3.57-0.16,6.58-2.77,7.16-6.3c0.13-0.8,0.25-1.59,0.35-2.39c0.08-0.63,0.15-1.29-0.04-1.89
				c-0.18-0.57-0.58-1.05-0.95-1.53c-1.99-2.61-3.18-5.82,3.04-16.58c1.24-1.77,0.58-4.19-0.12-6.24s-1.33-4.49-0.05-6.23
				c0.61-0.83,1.55-1.34,2.23-2.11c1.01-1.15,1.3-2.67,1.32-4.23c0.03-1.88-1.56-3.41-3.44-3.27
				C137.16,142.98,136.64,143.05,136.08,143.13z"/>
			<circle class="st12" cx="121.61" cy="213.26" r="1.57"/>
			<circle class="st12" cx="136.37" cy="216.41" r="1.57"/>
			<circle class="st12" cx="132.52" cy="224.97" r="1.57"/>
			<circle class="st12" cx="146.52" cy="213.26" r="1.57"/>
			<circle class="st12" cx="145.47" cy="237.44" r="1.57"/>
			<circle class="st12" cx="130.95" cy="220.31" r="1.57"/>
			<circle class="st12" cx="137.94" cy="239.02" r="1.57"/>
			<path class="st13" d="M178.7,166.37c-0.89-0.15-1.78-0.26-2.72-0.36c-2.5-0.8-4.92-1.57-7.42-2.37
				c-4.12-2.34-9.58-1.63-13.11,1.43c-4.86,4.22-5.42,11.56-9.02,16.91c-1.21,1.81-2.76,3.36-4.1,5.08
				c-2.81,3.62-5.62,7.25-8.43,10.87c-0.48,0.61-0.96,1.23-1.31,1.93c-0.85,1.69-0.88,3.66-0.88,5.56c-0.01,3.49-0.01,7,0.37,10.47
				c0.24,2.14,1.45,4.06,3.23,5.28l6.51,4.47c1.03,0.71,2.84,1.62,4.02,2.01c1.18,0.38,2.43,0.65,3.68,0.57
				c1.51-0.09,2.91-0.82,4.2-1.6c4.73-2.88,8.77-6.83,13.64-9.46c1.14-0.61,2.33-1.16,3.29-2.02c1.09-0.97,1.81-2.28,2.52-3.56
				l1.91-3.48c0.59-1.08,0.78-2.32,0.58-3.53c-1.21-7.56,2.35-14.78,6.66-20.91c1.04-1.47,2.13-2.93,2.82-4.6
				c0.32-0.77,0.54-1.57,0.69-2.39c0.07-0.38,0.12-0.76,0.15-1.15C186.33,171.04,183.11,167.13,178.7,166.37z"/>
		</g>
		<g>
			<text transform="matrix(1 0 0 1 259.0505 205.8163)"><tspan x="0" y="0" class="st1 st14 st11">Serena, R. S., Hinterwimmer, F., &amp; Burgkart, R. The Use of Artificial Intelli</tspan><tspan x="20.96" y="5.19" class="st1 st14 st11">gence and Wearable IMUs in Medicine: A Systematic Review.</tspan></text>
			<g>
				<g>
					<circle class="st15" cx="268.85" cy="162.22" r="21.18"/>
					<circle class="st16" cx="268.85" cy="162.22" r="21.18"/>
				</g>
				<g>
					<circle class="st17" cx="301.1" cy="162.22" r="21.18"/>
					<circle class="st16" cx="301.1" cy="162.22" r="21.18"/>
				</g>
				<g>
					<circle class="st18" cx="333.35" cy="162.22" r="21.18"/>
					<circle class="st16" cx="333.35" cy="162.22" r="21.18"/>
				</g>
				<g>
					<circle class="st19" cx="365.59" cy="162.22" r="21.18"/>
					<circle class="st16" cx="365.59" cy="162.22" r="21.18"/>
				</g>
				<g>
					<circle class="st20" cx="283.73" cy="141.04" r="21.18"/>
					<circle class="st16" cx="283.73" cy="141.04" r="21.18"/>
				</g>
				<g>
					<circle class="st21" cx="315.98" cy="141.04" r="21.18"/>
					<circle class="st16" cx="315.98" cy="141.04" r="21.18"/>
				</g>
				<g>
					<circle class="st22" cx="348.23" cy="141.04" r="21.18"/>
					<circle class="st16" cx="348.23" cy="141.04" r="21.18"/>
				</g>
				<rect x="260.44" y="173.25" class="st0" width="21.42" height="7.06"/>
				<text transform="matrix(1 0 0 1 260.4415 178.9445)" class="st1 st2 st23">SVM</text>
				<rect x="296.88" y="173.25" class="st0" width="21.42" height="7.06"/>
				<text transform="matrix(1 0 0 1 296.8815 178.9445)" class="st1 st2 st23">RF</text>
				<rect x="307.84" y="123.72" class="st0" width="21.42" height="7.06"/>
				<text transform="matrix(1 0 0 1 307.8364 129.4183)" class="st1 st2 st23">MLP</text>
				<rect x="338.73" y="123.72" class="st0" width="21.42" height="7.06"/>
				<text transform="matrix(1 0 0 1 338.7309 129.4183)" class="st1 st2 st23">LSTM</text>
				<rect x="358.24" y="173.25" class="st0" width="21.42" height="7.06"/>
				<text transform="matrix(1 0 0 1 358.2436 178.9445)" class="st1 st2 st23">CNN</text>
				<rect x="325.72" y="173.25" class="st0" width="21.42" height="7.06"/>
				<text transform="matrix(1 0 0 1 325.7231 178.9445)" class="st1 st2 st23">kNN</text>
				<rect x="278.69" y="123.91" class="st0" width="21.42" height="7.06"/>
				<text transform="matrix(1 0 0 1 278.695 129.6048)" class="st1 st2 st23">RL</text>
			</g>
		</g>
	</g>
</g>
<g id="Layer_2">
</g>
</svg>
